<svg width="34" height="34" fill="none" xmlns="http://www.w3.org/2000/svg"><path d="M2.192 15.125a11.424 11.424 0 00.5 11.927c.18.273.282.484.25.625a2063.4 2063.4 0 00-.932 4.834.625.625 0 00.212.6c.115.091.257.14.403.139a.568.568 0 00.228-.047l4.391-1.719a1.23 1.23 0 01.938.016c1.48.577 3.115.938 4.752.938a12.44 12.44 0 006.254-1.68m11.484-8.711c-.078-.281.094-.672.258-.953.05-.084.105-.165.164-.242a12.656 12.656 0 002.156-7.055C33.274 6.594 27.195.75 19.68.75 13.125.75 7.656 5.21 6.375 11.133a12.555 12.555 0 00-.289 2.672c0 7.21 5.844 13.21 13.36 13.21 1.195 0 2.804-.359 3.687-.6a24.693 24.693 0 001.984-.65 2.068 2.068 0 011.516.024l4.43 1.57c.097.041.2.068.304.078a.625.625 0 00.625-.625 1.001 1.001 0 00-.039-.21l-1.281-4.555z" stroke="#000" stroke-miterlimit="10" stroke-linecap="round"/></svg>