<svg width="24" height="34" fill="none" xmlns="http://www.w3.org/2000/svg"><path fill-rule="evenodd" clip-rule="evenodd" d="M.25 11.453C.25 5.247 5.537.25 12 .25s11.75 4.997 11.75 11.203c0 3.542-1.936 8.034-4.157 12.043-2.233 4.033-4.81 7.673-6.194 9.541a1.733 1.733 0 01-2.798 0c-1.384-1.869-3.96-5.51-6.194-9.544C2.187 19.483.25 14.992.25 11.453zM12 1.25c-5.958 0-10.75 4.595-10.75 10.203 0 3.258 1.814 7.55 4.032 11.556 2.204 3.98 4.753 7.583 6.124 9.435l.002.003a.73.73 0 001.184 0l.002-.003c1.371-1.851 3.92-5.453 6.124-9.433 2.218-4.004 4.032-8.297 4.032-11.558C22.75 5.845 17.959 1.25 12 1.25zm0 7.5a3.25 3.25 0 100 6.5 3.25 3.25 0 000-6.5zM7.75 12a4.25 4.25 0 118.5 0 4.25 4.25 0 01-8.5 0z" fill="#fff"/></svg>