<svg width="58" height="60" fill="none" xmlns="http://www.w3.org/2000/svg"><path d="M37.662 35.957c0 .232-.13.683-.391 1.353a11.86 11.86 0 00-.61 2.268c-.03.144-.059.232-.088.262-.03.03-.117.042-.261.042-1.914 0-3.822-.013-5.724-.042-1.901-.03-3.806-.043-5.723-.043-.669 0-1.321.013-1.957.043-.64.03-1.292.042-1.957.042a3.24 3.24 0 01-.414-.023c-.13-.013-.196-.065-.196-.153 0-.144.095-.21.284-.196.189.013.313.006.368-.023.32-.059.594-.16.829-.304.231-.144.42-.38.564-.696.143-.291.26-.677.349-1.157.088-.48.153-.997.196-1.55a37.367 37.367 0 00.111-2.879V13.149a9.75 9.75 0 00-.131-1.526c-.088-.553-.274-1.017-.564-1.396a1.321 1.321 0 00-.675-.48 7.856 7.856 0 00-.848-.22 1.344 1.344 0 00-.284-.088c-.13-.029-.196-.088-.196-.173 0-.117.173-.173.522-.173.61 0 1.21.03 1.807.088a18.374 18.374 0 003.614 0 18.32 18.32 0 011.806-.088c.173 0 .261.072.261.219 0 .059-.078.118-.238.173-.16.059-.284.102-.368.131a2.99 2.99 0 00-.74.239c-.203.1-.405.284-.61.545-.232.32-.385.684-.457 1.092a7.04 7.04 0 00-.108 1.222v18.84c0 1.164.043 2.327.13 3.488 0 .261.014.539.043.83.03.29.095.559.196.807.1.249.248.458.433.631.19.173.444.304.764.392a13.28 13.28 0 002.393.304c.813.03 1.625.043 2.437.043h.87c.35 0 .705-.013 1.067-.043s.695-.078 1.001-.153c.303-.072.529-.167.675-.285.118-.117.261-.268.434-.457.173-.19.34-.386.5-.589.159-.202.302-.379.433-.523.13-.147.225-.219.284-.219.11.004.17.06.17.177z" fill="#fff"/><path fill-rule="evenodd" clip-rule="evenodd" d="M27.487 0c4.008 0 7.791.974 11.128 2.697a24.196 24.196 0 00-9.24-1.821C15.941.876 5.052 11.79 5.052 25.253c0 9.442 5.358 17.633 13.195 21.68C9.396 43.287 3.164 34.564 3.164 24.38 3.164 10.914 14.054 0 27.487 0z" fill="#fff"/><path d="M3.956 58.947c0 .03-.006.072-.023.125a1.777 1.777 0 01-.068.19 2.21 2.21 0 00-.079.235 3.156 3.156 0 00-.058.264l-.01.043c-.007.016-.01.026-.02.033-.01.01-.022.013-.039.016-.013.003-.026.003-.045.003l-.643-.003-.642-.007a41.284 41.284 0 00-.643-.006l-.642-.003-.222.003-.219.006a3.843 3.843 0 01-.218.007l-.222.003H.114l-.046-.003a.11.11 0 01-.052-.02.067.067 0 01-.016-.045v-.007a.085.085 0 01.03-.056.112.112 0 01.058-.016h.013c.02 0 .036.003.049 0l.016-.003.01-.003a.455.455 0 00.173-.066.245.245 0 00.062-.055.57.57 0 00.095-.193c.013-.043.022-.089.032-.14a2.716 2.716 0 00.042-.343l.014-.184.006-.173.003-.157v-4.563c0-.052-.003-.105-.006-.16-.007-.059-.013-.118-.023-.177a.634.634 0 00-.046-.163.59.59 0 00-.075-.134.252.252 0 00-.133-.095l-.092-.026c-.045-.01-.081-.016-.124-.033l-.036-.01a.112.112 0 01-.048-.022.066.066 0 01-.02-.05c0-.048.052-.075.153-.075.069 0 .137.004.206.007.068.003.133.01.202.016.065.007.134.01.202.013a4.066 4.066 0 00.405-.003 3.78 3.78 0 00.199-.013 4.535 4.535 0 01.407-.023c.03 0 .05.007.065.02.02.016.026.036.026.065 0 .03-.026.053-.078.072-.02.007-.068.03-.088.033a.57.57 0 00-.16.052.305.305 0 00-.062.043.698.698 0 00-.062.068.581.581 0 00-.097.229l-.02.134a1.756 1.756 0 00-.006.134v4.226c0 .13.003.262.006.39.003.127.013.257.023.388l.003.092.007.094a.707.707 0 00.042.17c.01.026.023.05.04.072a.307.307 0 00.051.06.349.349 0 00.153.078 3.434 3.434 0 00.529.068l.274.007.274.003h.196l.117-.003.12-.007a1.24 1.24 0 00.22-.032c.032-.007.058-.017.084-.027.023-.01.04-.02.052-.03l.095-.1.055-.063.105-.13.048-.056c.017-.016.03-.032.043-.042a.077.077 0 01.045-.02c.023 0 .043.007.056.02.02.016.026.036.026.058zm45.578-5.314a.106.106 0 01-.017.062.066.066 0 01-.059.03.08.08 0 01-.075-.043l-.013-.02a.09.09 0 01-.02-.026.933.933 0 00-.07-.11.307.307 0 00-.066-.066c-.02-.017-.052-.03-.091-.046a1.25 1.25 0 00-.154-.05.973.973 0 00-.133-.028 1.652 1.652 0 00-.137-.017l-.14-.006-.138-.004h-1.18a.375.375 0 00-.154.02c-.006.003-.013.013-.016.033a.379.379 0 00-.01.098v2.307c0 .036 0 .066.004.088.003.023.006.04.013.05.003.003.01.01.026.013a.32.32 0 00.091.01h1.175l.15-.01.082-.01.078-.013a.506.506 0 00.072-.017.244.244 0 00.059-.023c.016-.01.029-.016.039-.029l.003-.003a.341.341 0 00.117-.167l.01-.042.013-.072a.224.224 0 01.026-.079c.017-.026.036-.039.062-.039.026 0 .05.013.062.04.01.019.016.045.016.078.004.032.004.072.007.104 0 .036 0 .072-.003.111a23.05 23.05 0 00-.01.115c-.003.036-.01.072-.01.108-.003.036-.003.072-.003.108l.003.173.013.346.003.177v.03l-.003.035a.111.111 0 01-.02.05.07.07 0 01-.048.022c-.026 0-.046-.013-.062-.04a.152.152 0 01-.017-.074l-.006-.062c-.003-.017-.003-.03-.007-.036-.01-.023-.02-.05-.035-.076l-.056-.081a.267.267 0 00-.202-.108c-.049-.003-.095-.01-.137-.01-.042-.003-.085-.003-.124-.003h-1.259a.393.393 0 00-.075.006c-.013.004-.02.007-.02.013-.003.01-.01.023-.01.043-.002.02-.002.046-.002.078v2.291a.77.77 0 00.022.203.347.347 0 00.101.154.43.43 0 00.18.091.899.899 0 00.127.03c.042.01.085.016.13.023.046.006.092.013.134.016l.13.01.121.003h.108l.147-.003.176-.007c.065-.003.127-.01.192-.016.065-.007.127-.02.19-.033.061-.013.12-.03.182-.045.059-.017.114-.04.17-.06a.813.813 0 00.14-.075.58.58 0 00.1-.098l.027-.039a.198.198 0 00.023-.046.163.163 0 01.036-.052.094.094 0 01.058-.023c.023 0 .04.007.056.02.013.013.02.032.02.055a.34.34 0 01-.01.072c-.007.026-.013.062-.026.098l-.079.245c-.016.046-.03.089-.045.128-.017.04-.033.082-.05.12-.016.04-.032.07-.045.096-.013.026-.03.046-.04.059a.28.28 0 01-.061.045.2.2 0 01-.075.023l-.069.007-.065.003c-.163 0-.336 0-.522-.003a478.27 478.27 0 00-.567-.01 15.83 15.83 0 00-.564-.01c-.18-.003-.352-.003-.525-.003-.092 0-.183 0-.271.003l-.264.01c-.088.003-.176.01-.268.01-.091.003-.182.003-.27.003h-.062l-.062-.003a.171.171 0 01-.066-.02.073.073 0 01-.032-.059c0-.039.026-.062.078-.075l.117-.02c.046-.006.092-.013.138-.022l.133-.03a.23.23 0 00.105-.059.435.435 0 00.078-.12.749.749 0 00.032-.157c.01-.072.02-.167.03-.278.006-.115.016-.232.023-.353.006-.125.013-.252.016-.383l.013-.385.007-.37.006-.52v-3.31c0-.105-.01-.2-.033-.282a.671.671 0 00-.097-.212.378.378 0 00-.17-.13.69.69 0 00-.26-.047l-.03-.003-.033-.01a.075.075 0 01-.039-.02.057.057 0 01-.02-.042c0-.02.007-.036.02-.049.01-.01.026-.02.046-.023l.035-.006.03-.003c.143 0 .287.01.424.026.134.016.274.023.414.023.385 0 .767-.007 1.145-.023l.574-.02c.192-.003.385-.006.574-.006l.124-.004.248-.016.127-.003c.026 0 .045.013.058.036a.13.13 0 01.013.068v.05l-.006.081v.036c0 .085.003.167.01.252-.007.088-.004.173-.004.258zM58 59.748c0 .03-.01.056-.033.076a.143.143 0 01-.081.029l-.072.006-.052.004c-.101 0-.202 0-.303-.004a82.792 82.792 0 01-.284-.01 1.745 1.745 0 01-.267-.029 1.624 1.624 0 01-.49-.147 1.424 1.424 0 01-.221-.134 1.782 1.782 0 01-.405-.422l-1.024-1.457a3.103 3.103 0 01-.16-.252c-.026-.046-.052-.092-.081-.134-.03-.042-.059-.085-.092-.124-.032-.04-.065-.075-.098-.111a2.936 2.936 0 00-.107-.095.508.508 0 00-.117-.062.465.465 0 00-.138-.02H53c-.035 0-.062.007-.078.023-.016.013-.023.036-.023.069v1.444l.004.147.006.17.013.17c.003.06.01.115.02.17.006.056.016.111.029.164.01.052.023.101.036.14.013.043.03.079.042.108a.386.386 0 00.235.196l.003.004a.266.266 0 00.092.019l.12.01.056.007.045.01c.02.003.036.012.046.022.013.013.02.03.02.05a.068.068 0 01-.023.055.098.098 0 01-.056.026.649.649 0 01-.114.01 4.685 4.685 0 01-.424-.023c-.068-.007-.137-.01-.205-.013-.069-.003-.137-.003-.212-.003-.065 0-.134 0-.2.003l-.198.01c-.069.003-.137.01-.206.01-.068.003-.133.003-.198.003h-.118l-.078-.004a.123.123 0 01-.056-.016.059.059 0 01-.029-.052c0-.033.02-.062.059-.082l.049-.02a.258.258 0 01.058-.013l.118-.02a.157.157 0 00.045-.012.352.352 0 00.036-.02.571.571 0 00.225-.353c.017-.078.03-.15.04-.225.01-.072.012-.141.012-.21v-5.089a1.14 1.14 0 00-.035-.297.495.495 0 00-.284-.337.809.809 0 00-.255-.062l-.048-.01-.04-.01a.074.074 0 01-.039-.02.058.058 0 01-.02-.042c0-.026.007-.045.02-.058a.084.084 0 01.056-.03l.049-.003h.049c.075 0 .15.003.225.006.071.004.146.01.218.017.069.006.14.01.215.013a4.985 4.985 0 00.842-.026 5.77 5.77 0 01.63-.036c.276 0 .54.032.795.098a2.023 2.023 0 01.675.31 1.562 1.562 0 01.61.906 1.948 1.948 0 01-.033.967c-.026.092-.058.18-.09.268a2.28 2.28 0 01-.122.255 2.892 2.892 0 01-.316.461 2.245 2.245 0 01-.398.37c-.01.016-.016.029-.023.042-.003.013-.006.023-.006.032 0 .02.006.04.02.06l.022.032c.447.526.92 1.236 1.337 1.804.033.043.072.092.118.147l.156.187a5.413 5.413 0 00.382.402 2.773 2.773 0 00.43.336.81.81 0 00.21.102.554.554 0 00.182.032h.042l.075-.006h.05c.032 0 .058.006.077.023.023.013.033.039.033.068zm-2.795-4.814a1.8 1.8 0 00-.13-.693 1.56 1.56 0 00-.362-.516 1.811 1.811 0 00-.255-.187 1.806 1.806 0 00-.623-.216 2.147 2.147 0 00-.362-.026h-.293a.267.267 0 00-.144.033.195.195 0 00-.081.101.83.83 0 00-.062.31v2.622c0 .01.003.017.013.026.013.01.032.02.059.03a1.219 1.219 0 00.215.042c.039.004.078.01.117.01.04.003.078.003.117.003h.695l.144-.003a.59.59 0 00.238-.049.838.838 0 00.32-.252 1.828 1.828 0 00.294-.588c.022-.072.038-.147.054-.222.013-.076.026-.15.033-.22.01-.071.013-.14.013-.205zM9.161 53.633a.107.107 0 01-.016.062.066.066 0 01-.059.03.08.08 0 01-.075-.043l-.013-.02a.09.09 0 01-.02-.026.94.94 0 00-.071-.11.307.307 0 00-.065-.066c-.02-.017-.053-.03-.092-.046a1.248 1.248 0 00-.153-.05.97.97 0 00-.134-.028 1.553 1.553 0 00-.137-.017l-.14-.006-.137-.004h-1.18a.375.375 0 00-.154.02c-.006.003-.013.013-.016.033a.378.378 0 00-.01.098v2.307c0 .036 0 .066.003.088.004.023.007.04.013.05.004.003.01.01.026.013a.32.32 0 00.092.01h1.174l.15-.01.081-.01.079-.013a.462.462 0 00.071-.017.243.243 0 00.06-.023c.015-.01.028-.016.038-.029l.004-.003a.34.34 0 00.117-.167l.01-.042.013-.072a.221.221 0 01.026-.079c.016-.026.036-.039.062-.039.026 0 .049.013.062.04.01.019.016.045.016.078.003.032.003.072.007.104 0 .036 0 .072-.004.111l-.01.115c-.003.036-.01.072-.01.108-.002.036-.002.072-.002.108l.003.173.016.346.003.177v.03l-.003.035a.11.11 0 01-.02.05.07.07 0 01-.048.022c-.026 0-.046-.013-.062-.04a.19.19 0 01-.02-.074l-.006-.062c-.004-.017-.004-.03-.007-.036-.01-.023-.02-.05-.036-.076-.016-.026-.036-.052-.055-.081a.266.266 0 00-.202-.108c-.05-.003-.095-.01-.137-.01-.043-.003-.085-.003-.124-.003h-1.26a.393.393 0 00-.074.006c-.013.004-.02.007-.02.013-.003.01-.01.023-.01.043-.003.02-.003.046-.003.078v2.291a.77.77 0 00.023.203.347.347 0 00.101.154.432.432 0 00.18.091.899.899 0 00.127.03c.042.01.084.016.13.023a2.1 2.1 0 00.134.016l.13.01.124.003h.105l.146-.003.176-.007c.066-.003.128-.01.193-.016.065-.007.127-.02.189-.033.062-.013.12-.03.183-.045.058-.017.114-.04.17-.06a.81.81 0 00.14-.075.578.578 0 00.1-.098l.027-.039a.2.2 0 00.022-.046.164.164 0 01.036-.052.093.093 0 01.059-.023c.023 0 .042.007.055.02.014.013.02.032.02.055 0 .02-.003.043-.01.072-.006.026-.013.062-.026.098l-.078.245c-.016.046-.03.089-.046.128-.016.04-.032.082-.049.12a.883.883 0 01-.045.096c-.013.026-.03.046-.04.059a.278.278 0 01-.061.045.2.2 0 01-.075.023l-.069.007-.065.003c-.163 0-.336 0-.522-.003l-.567-.01a17.07 17.07 0 00-.565-.01c-.18-.003-.352-.003-.525-.003-.091 0-.182 0-.27.003l-.265.01c-.088.003-.176.01-.267.01-.091.003-.183.003-.27.003h-.063l-.062-.003a.172.172 0 01-.065-.02.073.073 0 01-.033-.059c0-.039.027-.062.079-.075l.117-.02c.046-.006.091-.013.134-.022l.134-.03a.226.226 0 00.104-.059.388.388 0 00.078-.12.744.744 0 00.033-.157c.01-.072.02-.167.03-.278.006-.115.016-.232.022-.353.007-.125.013-.252.016-.383l.013-.385.007-.37.006-.52v-3.31c0-.105-.01-.2-.032-.282a.672.672 0 00-.098-.212c-.085-.118-.228-.176-.43-.176l-.03-.004-.032-.01a.075.075 0 01-.04-.02.057.057 0 01-.02-.042c0-.02.007-.036.02-.049.01-.01.026-.02.046-.023l.036-.006.03-.003c.143 0 .286.01.423.026l.206.02c.068.003.14.006.212.006.385 0 .766-.007 1.144-.023l.574-.02c.193-.003.385-.006.574-.006l.124-.003.248-.017.127-.003c.027 0 .046.013.06.036.009.016.012.04.012.069v.049l-.006.081v.036c0 .085.003.167.01.252-.007.085-.004.17-.004.255zm6.966-.673a.698.698 0 01-.01.114c-.006.036-.016.075-.026.114l-.029.105c-.01.036-.016.072-.023.105-.01.045-.016.088-.023.13-.003.043-.006.085-.006.128a.257.257 0 01-.01.078c-.01.03-.03.046-.055.046a.057.057 0 01-.046-.023.112.112 0 01-.023-.04.324.324 0 00-.016-.035c-.006-.01-.013-.023-.023-.036a.256.256 0 00-.068-.062.392.392 0 00-.111-.05l-.124-.035c-.036-.01-.069-.02-.098-.026a1.986 1.986 0 00-.365-.043l-.206-.003h-1.027a.097.097 0 00-.059.016c-.016.01-.026.03-.032.053a.621.621 0 00-.02.153 6.542 6.542 0 00-.007.291v4.491c0 .069 0 .137.004.206l.01.21a3.888 3.888 0 00.042.391c.01.06.023.112.036.157.013.043.03.079.046.105.02.026.039.056.068.078a.543.543 0 00.199.134.259.259 0 00.098.017h.049l.11-.007h.053c.03 0 .055.007.072.02a.08.08 0 01.032.065c0 .03-.016.05-.052.062a.333.333 0 01-.098.017l-.147.003a4.44 4.44 0 01-.418-.023 4.172 4.172 0 00-.208-.013c-.068-.003-.137-.003-.205-.003l-.255.003a5.67 5.67 0 00-.257.013 6.749 6.749 0 01-.258.016 5.653 5.653 0 01-.254.007l-.023-.003-.023-.004a.056.056 0 01-.033-.02c-.01-.01-.013-.022-.013-.038 0-.027.013-.05.043-.063a.228.228 0 01.081-.02l.075-.009a.168.168 0 00.04-.01l.006-.003c.059-.007.11-.013.157-.023a.904.904 0 00.12-.033c.03-.01.056-.03.078-.055a.373.373 0 00.06-.108.47.47 0 00.022-.101c.006-.046.013-.102.016-.167l.013-.206.01-.219.007-.219.003-.21v-4.725a.747.747 0 00-.007-.092.437.437 0 00-.023-.075.076.076 0 00-.039-.04.223.223 0 00-.088-.016h-1.738a.805.805 0 00-.163.013.36.36 0 00-.104.033c-.027.016-.053.03-.072.046a.298.298 0 00-.046.046c-.013.016-.02.032-.026.045a.088.088 0 00-.01.04c-.006.052-.029.081-.068.081a.08.08 0 01-.05-.016.096.096 0 01-.025-.043l-.007-.032v-.04c0-.016.003-.032.007-.055.003-.02.01-.043.016-.069l.023-.075.082-.229.019-.065.013-.056a.213.213 0 00.01-.042l.01-.082a.285.285 0 01.022-.091c.017-.03.04-.043.069-.043.026 0 .049.004.072.007.023.003.045.013.068.02l.059.022.065.02c.062.013.127.023.193.03.065.006.133.012.205.016l.209.006.205.003h3.115a7.072 7.072 0 00.508-.019c.082-.007.167-.01.255-.013.088-.004.173-.007.26-.007.024 0 .046.007.06.017a.097.097 0 01.022.062zm2.081.398a.659.659 0 01-.02.15 2.135 2.135 0 01-.136.377c-.03.065-.062.134-.095.199a5.187 5.187 0 01-.108.196 2.445 2.445 0 01-.114.18l-.107.154a2.777 2.777 0 01-.088.117.471.471 0 01-.069.069.352.352 0 01-.036.02l-.006.003h-.007c-.02 0-.032-.007-.046-.023a.082.082 0 01-.01-.043c0-.01.004-.03.014-.049a.46.46 0 01.036-.065l.045-.085.053-.101c.016-.036.035-.076.048-.115.017-.042.033-.081.046-.124.013-.043.026-.085.033-.128a.853.853 0 00-.004-.27.524.524 0 00-.032-.115l-.05-.102a.894.894 0 00-.051-.081l-.056-.069c-.016-.02-.032-.04-.049-.055a.21.21 0 01-.042-.056.133.133 0 01-.016-.059c0-.016.006-.036.02-.059.012-.02.029-.042.048-.068.023-.026.046-.056.072-.082.026-.026.052-.055.081-.082.03-.03.062-.055.088-.078a.6.6 0 01.092-.069.668.668 0 01.085-.052.172.172 0 01.075-.02c.022 0 .042.01.065.026a.258.258 0 01.052.063c.016.026.033.052.049.081a.74.74 0 01.042.095l.036.098.033.092c.01.03.016.055.023.078.003.02.006.04.006.052zm5.15 4.55c0 .173-.02.337-.059.494a1.817 1.817 0 01-.176.447 2.345 2.345 0 01-.636.73 2.69 2.69 0 01-.306.196 1.974 1.974 0 01-.626.2 2.49 2.49 0 01-.356.022 4.02 4.02 0 01-.336-.017 5.754 5.754 0 01-.372-.045 3.638 3.638 0 01-.368-.076 2.616 2.616 0 01-.32-.104l-.049-.02-.042-.02a.096.096 0 01-.046-.042c-.01-.016-.016-.04-.023-.062v-.003a3.218 3.218 0 01-.016-.18l-.01-.18-.003-.18v-.176c0-.059 0-.114.003-.167l.01-.14a.372.372 0 01.026-.108c.016-.033.042-.052.072-.052.036 0 .062.026.078.078l.016.062c.017.072.03.147.043.22a.35.35 0 00.016.068c.006.023.016.042.023.059.036.072.075.14.117.199a.94.94 0 00.144.157 1.217 1.217 0 00.349.219c.065.026.13.049.195.069.066.02.134.032.206.042.072.01.14.016.212.023.072.003.14.006.212.006.075 0 .147-.003.222-.01.071-.006.146-.019.221-.032a.974.974 0 00.395-.173 1.385 1.385 0 00.444-.507c.117-.216.176-.431.176-.647 0-.075-.007-.15-.02-.22a.918.918 0 00-.065-.202 1.59 1.59 0 00-.362-.516 1.544 1.544 0 00-.163-.14c-.059-.047-.118-.089-.176-.132-.062-.042-.121-.084-.183-.12l-1.044-.654a2.18 2.18 0 01-.746-.765 1.975 1.975 0 01-.206-.493 2.112 2.112 0 01-.068-.543 1.7 1.7 0 01.052-.425c.036-.14.088-.278.156-.415a1.446 1.446 0 01.851-.739 1.68 1.68 0 01.307-.075c.108-.02.212-.033.31-.04a2.83 2.83 0 01.28-.012 4.56 4.56 0 01.408.023c.055.006.11.013.166.023.053.01.105.016.15.026l.137.026.128.023a1.353 1.353 0 00.244.016c.075 0 .114-.003.118-.01a.1.1 0 01.042-.03c.016-.006.033-.006.052-.006.023 0 .04.007.05.023.009.013.012.03.012.05a.487.487 0 01-.023.13.38.38 0 00-.013.059c-.003.02-.003.036-.003.055v.115l.007.229v.117c-.004.095-.01.19-.017.285-.003.026-.003.052-.01.075a.379.379 0 01-.016.065.116.116 0 01-.03.052c-.015.017-.032.027-.051.027-.023 0-.043-.014-.056-.036a.155.155 0 01-.02-.063c-.003-.022-.006-.045-.012-.075l-.023-.091a1.987 1.987 0 00-.036-.105c-.013-.036-.033-.072-.05-.11a.993.993 0 00-.068-.109 1.196 1.196 0 00-.088-.098 1.266 1.266 0 00-.248-.154c-.048-.022-.097-.042-.146-.062a1.205 1.205 0 00-.154-.049 11.138 11.138 0 01-.16-.039l-.162-.03-.154-.019c-.049-.003-.091-.006-.133-.006-.082 0-.163.006-.242.016-.078.013-.156.03-.231.052a1.181 1.181 0 00-.391.21 1.135 1.135 0 00-.154.153.969.969 0 00-.199.405 1.359 1.359 0 00-.007.484c.014.075.033.147.06.216a1.625 1.625 0 00.368.569 2.447 2.447 0 00.349.297c.062.043.124.085.189.124l1.004.638c.16.1.304.209.43.32.128.111.239.229.334.346.094.124.166.265.215.428.049.174.075.357.075.556zm8.867 1.04a.448.448 0 01-.022.124 1.8 1.8 0 01-.069.19c-.03.071-.055.153-.078.235a3.164 3.164 0 00-.069.31.092.092 0 01-.02.033c-.009.01-.022.013-.038.016-.013.003-.026.003-.046.003l-.642-.003-1.282-.013-.643-.003-.221.003-.219.007c-.072.003-.143.006-.218.006l-.222.003h-.05l-.045-.003a.11.11 0 01-.052-.02.064.064 0 01-.026-.052v-.006a.085.085 0 01.03-.056.113.113 0 01.058-.016h.013c.02 0 .036.003.049 0l.016-.003.01-.004a.43.43 0 00.095-.026.29.29 0 00.078-.04.248.248 0 00.062-.055.562.562 0 00.095-.193 2.332 2.332 0 00.075-.484l.013-.182.006-.174.003-.156v-4.563c0-.053-.003-.105-.006-.16-.007-.06-.013-.118-.023-.177a.635.635 0 00-.046-.163.595.595 0 00-.075-.134.333.333 0 00-.058-.06.2.2 0 00-.076-.035l-.09-.026c-.046-.01-.082-.017-.125-.033l-.036-.01a.114.114 0 01-.049-.023.065.065 0 01-.022-.052c0-.03.016-.052.052-.062a.353.353 0 01.098-.013 4.676 4.676 0 01.407.023 4.473 4.473 0 00.401.016c.069 0 .134-.003.203-.003.068-.003.133-.01.199-.013a4.676 4.676 0 01.407-.023c.03 0 .05.006.066.02.02.016.026.035.026.065s-.026.052-.079.072c-.02.006-.068.03-.088.033a.57.57 0 00-.16.052.302.302 0 00-.062.042c-.019.02-.042.043-.061.069a.58.58 0 00-.098.229l-.02.134a1.738 1.738 0 00-.006.134v4.226a7.91 7.91 0 00.03.778l.002.091.007.095a.727.727 0 00.042.17.31.31 0 00.04.072.302.302 0 00.052.059.354.354 0 00.153.078c.088.02.173.036.26.046.089.01.18.02.268.023l.274.006.274.004h.196l.117-.004.12-.006c.04-.003.08-.007.115-.013l.104-.02c.033-.006.059-.016.085-.026.023-.01.04-.02.052-.03l.095-.1.055-.063.105-.13.049-.056c.016-.016.029-.033.042-.043a.078.078 0 01.046-.02c.023 0 .042.007.055.02.036.02.042.04.042.063zm7.188.85c0 .029-.01.048-.032.065a.117.117 0 01-.072.02 5.58 5.58 0 01-.47-.024c-.078-.006-.156-.013-.231-.013-.075-.003-.153-.003-.232-.003-.065 0-.13 0-.195.003l-.193.01c-.065.003-.13.01-.195.01-.066.003-.134.003-.196.003-.033-.003-.069-.003-.101-.006a.847.847 0 01-.069-.01c-.029-.01-.045-.026-.045-.05 0-.019.006-.035.02-.048.009-.013.025-.02.042-.03l.045-.013.05-.013a.282.282 0 01.051-.006l.098-.003.023-.007a.223.223 0 00.143-.114.306.306 0 00.033-.092.52.52 0 00.01-.105.777.777 0 00-.01-.114 1.362 1.362 0 00-.03-.14 2.499 2.499 0 00-.078-.261l-.46-1.223-.035-.085-.033-.072a.312.312 0 00-.062-.085.18.18 0 00-.042-.023.593.593 0 00-.144-.02l-.11-.003H34.85l-.075.003c-.02 0-.04.004-.056.01a.163.163 0 00-.042.016.111.111 0 00-.03.026c-.01.01-.019.027-.029.043l-.032.069-.036.094c-.144.39-.29.782-.43 1.174-.043.144-.082.29-.115.438a.79.79 0 00-.013.075c-.003.023-.003.04-.003.056 0 .075.013.14.042.192a.3.3 0 00.128.128h.003a.14.14 0 00.036.013c.02.007.045.01.081.016.04.007.069.013.088.026.03.017.046.036.046.066a.08.08 0 01-.02.055.09.09 0 01-.052.027l-.062.006c-.049 0-.101 0-.16-.003l-.182-.01a1.836 1.836 0 00-.183-.01c-.055-.003-.108-.003-.16-.003-.058 0-.114 0-.163.003a8.962 8.962 0 00-.143.01c-.046.003-.095.01-.15.01-.053.003-.111.003-.167.003l-.081-.006c-.026-.004-.05-.01-.065-.027a.086.086 0 01-.026-.065c0-.03.016-.049.048-.065a.32.32 0 01.095-.02.31.31 0 00.17-.069 1.08 1.08 0 00.209-.281c.035-.065.071-.13.107-.2.036-.068.068-.14.101-.212l.101-.225c.033-.079.065-.154.095-.232.603-1.523 1.213-3.046 1.82-4.57l.27-.709.078-.196.069-.163.055-.128a.427.427 0 01.05-.088c.019-.026.042-.042.061-.042.026 0 .05.01.069.029.016.016.032.04.042.069l.026.062a.193.193 0 00.02.036l.003.006c.042.101.085.2.12.298.037.098.073.199.102.3a8.146 8.146 0 00.209.601l1.917 5.067.056.13c.02.043.039.089.062.128.023.043.045.085.072.127a.62.62 0 00.13.157c.049.04.101.072.16.092.049.007.1.02.15.03l.045.012.043.014a.21.21 0 01.036.016c.013.013.023.026.023.042zm-2.374-2.946c0-.016-.023-.091-.072-.228l-.247-.7-.186-.497-.304-.813a5.912 5.912 0 00-.185-.455.638.638 0 00-.05-.081l-.016-.017c-.013 0-.032.023-.058.069a.948.948 0 00-.056.114c-.02.046-.042.105-.068.173-.29.742-.58 1.481-.865 2.226a3.683 3.683 0 00-.081.236c0 .01 0 .016.003.02l.04.002h1.937l.078-.003.078-.006c.02-.004.033-.007.042-.017.007 0 .01-.01.01-.023zm6.937 1.056c0 .173-.02.337-.059.494a1.83 1.83 0 01-.176.447 2.339 2.339 0 01-.636.73 2.69 2.69 0 01-.306.196 1.974 1.974 0 01-.626.2 2.49 2.49 0 01-.356.022c-.104 0-.218-.007-.336-.017a5.754 5.754 0 01-.372-.045 3.638 3.638 0 01-.368-.076 2.616 2.616 0 01-.32-.104l-.049-.02-.042-.02a.096.096 0 01-.046-.042c-.01-.016-.016-.04-.023-.062v-.003a3.316 3.316 0 01-.016-.18l-.01-.18-.003-.18v-.176c0-.059 0-.114.003-.167l.01-.14a.369.369 0 01.026-.108c.017-.033.043-.052.072-.052.036 0 .062.026.078.078l.017.062c.016.072.029.147.042.22a.35.35 0 00.016.068c.007.023.017.042.023.059.036.072.075.14.117.199a.94.94 0 00.144.157 1.218 1.218 0 00.349.219c.065.026.13.049.196.069.065.02.133.032.205.042.072.01.14.016.212.023.072.003.14.006.212.006.075 0 .147-.003.222-.01.072-.006.147-.019.222-.032a.974.974 0 00.394-.173 1.385 1.385 0 00.444-.507c.117-.216.176-.431.176-.647 0-.075-.007-.15-.02-.22a.923.923 0 00-.065-.202 1.59 1.59 0 00-.362-.516 1.736 1.736 0 00-.163-.14c-.059-.047-.117-.089-.176-.132-.062-.042-.12-.084-.183-.12l-1.043-.654a2.18 2.18 0 01-.747-.765 1.975 1.975 0 01-.206-.493 2.112 2.112 0 01-.068-.543c0-.288.068-.566.209-.837a1.444 1.444 0 01.587-.62c.081-.047.166-.09.264-.118a2.786 2.786 0 01.616-.114 2.86 2.86 0 01.5-.007c.068.003.13.01.188.016.056.007.111.013.167.023.052.01.104.016.15.026l.137.026.127.023a1.39 1.39 0 00.245.016c.075 0 .114-.003.117-.01a.099.099 0 01.042-.029c.017-.006.033-.006.053-.006.022 0 .039.006.048.022a.08.08 0 01.013.05.484.484 0 01-.022.13.376.376 0 00-.013.059c-.004.02-.004.036-.004.056v.114l.007.229v.117c-.003.095-.01.19-.017.285-.003.026-.003.052-.01.075a.37.37 0 01-.016.065.116.116 0 01-.029.053c-.016.016-.032.026-.052.026-.023 0-.042-.013-.056-.036a.156.156 0 01-.02-.066.711.711 0 00-.012-.075l-.023-.091a1.987 1.987 0 00-.036-.105c-.013-.036-.032-.072-.049-.11a.978.978 0 00-.068-.109 1.196 1.196 0 00-.088-.098 1.266 1.266 0 00-.248-.154l-.147-.062a1.205 1.205 0 00-.153-.049 11.138 11.138 0 01-.16-.039l-.163-.03a4 4 0 01-.153-.019c-.05-.003-.092-.006-.134-.006a1.9 1.9 0 00-.241.016c-.079.013-.157.03-.232.052a1.181 1.181 0 00-.391.21 1.135 1.135 0 00-.154.153 1.315 1.315 0 00-.12.186 1.16 1.16 0 00-.079.22 1.359 1.359 0 00-.007.484c.014.074.034.146.06.215a1.625 1.625 0 00.368.569 2.468 2.468 0 00.349.297 3.1 3.1 0 00.19.124l1.004.638c.16.1.303.209.43.32.127.111.238.229.333.346.095.124.166.265.215.428.05.174.075.357.075.556z" fill="#fff"/></svg>