<svg width="14" height="14" viewBox="0 0 14 14" fill="none" xmlns="http://www.w3.org/2000/svg">
<path d="M0.200012 13.5454H2.56365V5.74541H0.200012V13.5454ZM13.2 6.39541C13.2 5.68041 12.6682 5.09541 12.0182 5.09541H8.29547L8.88638 2.10541C8.88638 2.04041 8.88638 1.97541 8.88638 1.91041C8.88638 1.65041 8.76819 1.39041 8.65004 1.19541L8.00001 0.54541L4.10001 4.83541C3.86365 5.03041 3.74547 5.35541 3.74547 5.74541V12.2454C3.74547 12.9604 4.27729 13.5454 4.92729 13.5454H10.2455C10.7182 13.5454 11.1318 13.2204 11.3091 12.7654L13.0818 8.15038C13.1409 8.02038 13.1409 7.82538 13.1409 7.69538V6.39538L13.2 6.39541Z" fill="#929292"/>
</svg>
