<svg width="58" height="60" viewBox="0 0 58 60" fill="none" xmlns="http://www.w3.org/2000/svg">
<path d="M37.6622 35.9569C37.6622 36.1889 37.5317 36.64 37.2708 37.31C37.0099 37.9801 36.8077 38.7351 36.6609 39.5784C36.6316 39.7222 36.6022 39.8104 36.5729 39.8398C36.5435 39.8693 36.4555 39.8823 36.312 39.8823C34.3975 39.8823 32.4897 39.8693 30.5883 39.8398C28.6869 39.8104 26.7823 39.7973 24.8646 39.7973C24.196 39.7973 23.5437 39.8104 22.9078 39.8398C22.2686 39.8693 21.6163 39.8823 20.951 39.8823C20.8075 39.8823 20.6672 39.8758 20.5368 39.8594C20.4063 39.8464 20.3411 39.7941 20.3411 39.7058C20.3411 39.562 20.4357 39.4966 20.6248 39.5097C20.814 39.5228 20.9379 39.5163 20.9934 39.4868C21.313 39.428 21.5869 39.3267 21.8218 39.1829C22.0533 39.0391 22.2425 38.8037 22.386 38.4867C22.5295 38.1958 22.6469 37.8101 22.7349 37.3296C22.823 36.8492 22.8882 36.3327 22.9306 35.7803C22.973 35.228 23.0024 34.6985 23.0187 34.1886C23.0317 33.6787 23.0415 33.2505 23.0415 32.9008V13.1492C23.0415 12.6851 22.9991 12.1752 22.911 11.6228C22.823 11.0704 22.6371 10.6063 22.3468 10.2272C22.174 9.9951 21.9489 9.83494 21.6717 9.74669C21.3978 9.65844 21.114 9.58653 20.8238 9.5277C20.7651 9.49828 20.6705 9.46887 20.54 9.43945C20.4096 9.41003 20.3444 9.3512 20.3444 9.26622C20.3444 9.14855 20.5172 9.09299 20.8662 9.09299C21.476 9.09299 22.0761 9.1224 22.673 9.18124C23.2698 9.24007 23.8699 9.26949 24.4798 9.26949C25.0896 9.26949 25.6897 9.24007 26.2866 9.18124C26.8801 9.1224 27.4835 9.09299 28.0933 9.09299C28.2662 9.09299 28.3543 9.16489 28.3543 9.31198C28.3543 9.37081 28.276 9.42964 28.1162 9.48521C27.9564 9.54404 27.8324 9.58653 27.7476 9.61595C27.4574 9.67478 27.2095 9.75323 27.0073 9.85455C26.8051 9.95587 26.6029 10.1389 26.3974 10.4004C26.1659 10.7207 26.0126 11.0835 25.9408 11.4921C25.8691 11.9006 25.8332 12.3059 25.8332 12.7145V31.5542C25.8332 32.7178 25.8756 33.8813 25.9637 35.0417C25.9637 35.3031 25.9767 35.581 26.0061 35.8719C26.0354 36.1628 26.1007 36.4308 26.2018 36.6792C26.3029 36.9276 26.4496 37.1368 26.6355 37.31C26.8247 37.4832 27.0791 37.614 27.3987 37.7022C28.1814 37.8755 28.9804 37.9768 29.7925 38.0062C30.6046 38.0356 31.4167 38.0487 32.2287 38.0487C32.4603 38.0487 32.7506 38.0487 33.0995 38.0487C33.4485 38.0487 33.804 38.0356 34.166 38.0062C34.528 37.9768 34.8607 37.9278 35.1672 37.8526C35.4705 37.7807 35.6956 37.6859 35.8423 37.5682C35.9597 37.4506 36.1032 37.3002 36.2761 37.1106C36.4489 36.9211 36.6153 36.7249 36.7751 36.5223C36.9349 36.3197 37.0784 36.1432 37.2088 35.9993C37.3393 35.8523 37.4339 35.7803 37.4926 35.7803C37.6035 35.7836 37.6622 35.8392 37.6622 35.9569Z" fill="white"/>
<path fill-rule="evenodd" clip-rule="evenodd" d="M27.4867 0C31.495 0 35.2781 0.974015 38.6145 2.69652C35.7673 1.52312 32.6462 0.87596 29.3751 0.87596C15.9415 0.87596 5.05186 11.7895 5.05186 25.2525C5.05186 34.6952 10.4103 42.8861 18.2473 46.9325C9.39599 43.2881 3.16353 34.5645 3.16353 24.3798C3.16353 10.9135 14.0532 0 27.4867 0Z" fill="white"/>
<path d="M3.95603 58.9475C3.95603 58.9769 3.94951 59.0194 3.9332 59.0717C3.91689 59.124 3.89732 59.1861 3.86471 59.2613C3.83536 59.3332 3.80927 59.4149 3.78644 59.4966C3.76361 59.5816 3.74404 59.6699 3.72773 59.7614C3.72447 59.7777 3.72121 59.7941 3.71795 59.8039C3.71143 59.8202 3.70816 59.83 3.69838 59.8366C3.6886 59.8464 3.67555 59.8496 3.65924 59.8529C3.6462 59.8562 3.63315 59.8562 3.61359 59.8562L2.9711 59.8529L2.32861 59.8464C2.11662 59.8431 1.90137 59.8398 1.68612 59.8398L1.04363 59.8366L0.821862 59.8398L0.603351 59.8464C0.531601 59.8496 0.459852 59.8529 0.38484 59.8529L0.163068 59.8562H0.114148L0.0684885 59.8529C0.045659 59.8496 0.0293522 59.8431 0.0163068 59.8333C0.00978408 59.8268 0 59.8104 0 59.7875V59.781C0.00326136 59.7581 0.0130454 59.7385 0.0293522 59.7254C0.045659 59.7156 0.0652272 59.7091 0.0880567 59.7091H0.101102C0.12067 59.7091 0.136977 59.7124 0.150023 59.7091L0.166329 59.7058L0.176113 59.7026C0.244602 59.6895 0.300045 59.6699 0.348965 59.6372C0.371795 59.6241 0.391363 59.6045 0.410931 59.5816C0.430499 59.5587 0.446806 59.5293 0.463113 59.4966C0.47942 59.4672 0.492465 59.4313 0.505511 59.3888C0.518556 59.3463 0.52834 59.3005 0.538124 59.2482C0.547908 59.1959 0.557692 59.1404 0.564215 59.0815C0.570738 59.026 0.57726 58.9671 0.580522 58.905L0.593567 58.722L0.60009 58.5488L0.603351 58.3919V58.2611V53.829C0.603351 53.7768 0.60009 53.7245 0.596829 53.6689C0.590306 53.6101 0.583783 53.5512 0.573999 53.4924C0.564215 53.4336 0.55117 53.378 0.52834 53.329C0.508772 53.2799 0.482681 53.2342 0.453329 53.195C0.437022 53.1721 0.417454 53.1525 0.394624 53.1361C0.371795 53.1198 0.348965 53.1067 0.319613 53.1002L0.228295 53.074C0.182636 53.0642 0.146761 53.0577 0.104363 53.0413L0.0684885 53.0315C0.0489204 53.0283 0.0326136 53.0185 0.0195682 53.0086C0.00652272 52.9956 0 52.9792 0 52.9596C0 52.9106 0.0521817 52.8844 0.153284 52.8844C0.221772 52.8844 0.290261 52.8877 0.358749 52.891C0.427238 52.8943 0.492465 52.9008 0.560954 52.9073C0.626181 52.9139 0.694669 52.9171 0.763158 52.9204C0.828385 52.9237 0.896874 52.9237 0.965362 52.9237C1.03385 52.9237 1.10234 52.9204 1.16757 52.9171C1.23605 52.9139 1.30128 52.9106 1.36651 52.9041C1.435 52.8975 1.50349 52.891 1.56871 52.8877C1.6372 52.8844 1.70569 52.8812 1.77418 52.8812C1.80353 52.8812 1.8231 52.8877 1.83941 52.9008C1.85897 52.9171 1.8655 52.9367 1.8655 52.9662C1.8655 52.9956 1.83941 53.0185 1.78722 53.0381C1.76766 53.0446 1.71874 53.0675 1.69917 53.0708C1.66655 53.0773 1.6372 53.0838 1.61111 53.0936C1.58502 53.1034 1.56219 53.1132 1.53936 53.123C1.51979 53.1329 1.50023 53.1459 1.4774 53.1655C1.45783 53.1852 1.435 53.208 1.41543 53.2342C1.3926 53.2669 1.36977 53.3028 1.35346 53.342C1.33716 53.3813 1.32411 53.4205 1.31759 53.463C1.31107 53.5087 1.30454 53.5545 1.29802 53.597C1.29476 53.6395 1.2915 53.6852 1.2915 53.731V57.9572C1.2915 58.0879 1.29476 58.2187 1.29802 58.3461C1.30128 58.4736 1.31107 58.6043 1.32085 58.7351L1.32411 58.8266L1.33063 58.9214C1.3339 58.9508 1.34042 58.9835 1.34694 59.0096C1.35346 59.039 1.36325 59.0652 1.37303 59.0913C1.38282 59.1175 1.39586 59.1404 1.41217 59.1632C1.42848 59.1861 1.44478 59.2057 1.46435 59.2221C1.48392 59.2384 1.50675 59.2548 1.52958 59.2678C1.55567 59.2809 1.58502 59.294 1.61763 59.3005C1.70569 59.3201 1.79049 59.3365 1.87854 59.3463C1.9666 59.3561 2.05792 59.3659 2.14597 59.3692L2.41993 59.3757L2.69388 59.379H2.88956L3.00697 59.3757L3.12764 59.3692C3.16678 59.3659 3.20592 59.3626 3.24179 59.3561C3.27767 59.3496 3.31354 59.343 3.34615 59.3365C3.37877 59.3299 3.40486 59.3201 3.43095 59.3103C3.45378 59.3005 3.47009 59.2907 3.48313 59.2809L3.57771 59.1796L3.63315 59.1175L3.73752 58.9868L3.78644 58.9312C3.80274 58.9148 3.81579 58.8985 3.82884 58.8887C3.84514 58.8756 3.86145 58.8691 3.87449 58.8691C3.89732 58.8691 3.91689 58.8756 3.92994 58.8887C3.94951 58.905 3.95603 58.9247 3.95603 58.9475ZM49.5335 53.6329C49.5335 53.6591 49.527 53.682 49.5172 53.695C49.5042 53.7146 49.4846 53.7245 49.4585 53.7245C49.4259 53.7245 49.3998 53.7114 49.3835 53.682L49.3704 53.6624C49.3639 53.6558 49.3541 53.646 49.3509 53.6362C49.3248 53.5904 49.302 53.5545 49.2791 53.5251C49.2563 53.4957 49.2367 53.476 49.2139 53.4597C49.1943 53.4434 49.1617 53.4303 49.1226 53.4139C49.0834 53.3976 49.0313 53.3813 48.9693 53.3649C48.9236 53.3518 48.8812 53.342 48.8356 53.3355C48.7899 53.329 48.7443 53.3224 48.6986 53.3192L48.5584 53.3126L48.4214 53.3094H47.2408C47.1625 53.3094 47.1103 53.3159 47.0875 53.329C47.081 53.3322 47.0745 53.342 47.0712 53.3616C47.0647 53.3845 47.0614 53.4172 47.0614 53.4597V55.7673C47.0614 55.8032 47.0614 55.8326 47.0647 55.8555C47.0679 55.8784 47.0712 55.8947 47.0777 55.9045C47.081 55.9078 47.0875 55.9144 47.1038 55.9176C47.1234 55.9242 47.156 55.9274 47.1951 55.9274H48.3072H48.3692L48.5192 55.9176L48.6008 55.9078L48.679 55.8947C48.7051 55.8915 48.728 55.8849 48.7508 55.8784C48.7736 55.8719 48.7932 55.8653 48.8095 55.8555C48.8258 55.8457 48.8388 55.8392 48.8486 55.8261L48.8519 55.8228C48.8812 55.8 48.9073 55.7738 48.9269 55.7444C48.9465 55.715 48.9595 55.6856 48.9693 55.6561L48.9791 55.6136L48.9921 55.5417C48.9987 55.5091 49.0052 55.4829 49.0182 55.4633C49.0345 55.4372 49.0541 55.4241 49.0802 55.4241C49.1063 55.4241 49.1291 55.4372 49.1422 55.4633C49.1519 55.4829 49.1585 55.5091 49.1585 55.5417C49.1617 55.5744 49.1617 55.6137 49.165 55.6463C49.165 55.6823 49.165 55.7182 49.1617 55.7575C49.1585 55.7934 49.1552 55.8326 49.1519 55.8719C49.1487 55.9078 49.1422 55.9438 49.1422 55.9797C49.1389 56.0157 49.1389 56.0516 49.1389 56.0876L49.1422 56.2608L49.1552 56.6073L49.1585 56.7838V56.8132L49.1552 56.8491C49.1519 56.8688 49.1454 56.8851 49.1356 56.8982C49.1226 56.9112 49.1063 56.9211 49.0867 56.9211C49.0606 56.9211 49.0411 56.908 49.0247 56.8818C49.015 56.8655 49.0084 56.8393 49.0084 56.8067L49.0019 56.7446C48.9987 56.7282 48.9987 56.7151 48.9954 56.7086C48.9856 56.6857 48.9758 56.6596 48.9595 56.6334C48.9432 56.6073 48.9236 56.5811 48.9041 56.5517C48.8812 56.519 48.8519 56.4961 48.8193 56.4765C48.7867 56.4569 48.7475 56.4471 48.7019 56.4439C48.653 56.4406 48.6073 56.434 48.5649 56.434C48.5225 56.4308 48.4801 56.4308 48.441 56.4308H47.1821C47.1495 56.4308 47.1234 56.434 47.1071 56.4373C47.094 56.4406 47.0875 56.4439 47.0875 56.4504C47.0842 56.4602 47.0777 56.4733 47.0777 56.4929C47.0745 56.5125 47.0745 56.5386 47.0745 56.5713V58.8625C47.0745 58.9377 47.081 59.0064 47.0973 59.0652C47.1038 59.0913 47.1169 59.1208 47.1332 59.1436C47.1495 59.1698 47.1723 59.1959 47.1984 59.2188C47.218 59.2384 47.244 59.258 47.2734 59.2711C47.3027 59.2875 47.3386 59.3005 47.3778 59.3103C47.4202 59.3234 47.4626 59.3332 47.505 59.3398C47.5474 59.3496 47.5897 59.3561 47.6354 59.3626C47.6811 59.3692 47.7267 59.3757 47.7691 59.379C47.8115 59.3822 47.8572 59.3855 47.8996 59.3888L48.0202 59.392H48.1279L48.2746 59.3888L48.4507 59.3822C48.516 59.379 48.5779 59.3724 48.6432 59.3659C48.7084 59.3594 48.7704 59.3463 48.8323 59.3332C48.8943 59.3201 48.953 59.3038 49.015 59.2875C49.0737 59.2711 49.1291 59.2482 49.1846 59.2286C49.2367 59.2057 49.2824 59.1829 49.3248 59.1534C49.3639 59.124 49.3965 59.0913 49.4259 59.0554C49.4357 59.0423 49.4422 59.0292 49.452 59.0162C49.4618 59.0031 49.4683 58.9868 49.4748 58.9704C49.4846 58.9475 49.4976 58.9312 49.5107 58.9181C49.527 58.905 49.5466 58.8952 49.5694 58.8952C49.5922 58.8952 49.6085 58.9018 49.6248 58.9148C49.6379 58.9279 49.6444 58.9475 49.6444 58.9704C49.6444 58.99 49.6411 59.0129 49.6346 59.0423C49.6281 59.0685 49.6216 59.1044 49.6085 59.1404L49.5303 59.3855C49.5139 59.4313 49.5009 59.4738 49.4846 59.513C49.4683 59.5522 49.452 59.5947 49.4357 59.6339C49.4194 59.6731 49.4031 59.7026 49.39 59.7287C49.377 59.7549 49.3607 59.7745 49.3509 59.7875C49.3313 59.8071 49.3117 59.8202 49.2889 59.8333C49.2661 59.8464 49.24 59.8529 49.2139 59.8562L49.1454 59.8627L49.0802 59.866C48.9171 59.866 48.7443 59.866 48.5584 59.8627C48.3757 59.8594 48.1866 59.8562 47.9909 59.8529C47.7952 59.8464 47.6061 59.8431 47.4267 59.8431C47.2473 59.8398 47.0745 59.8398 46.9016 59.8398C46.8103 59.8398 46.719 59.8398 46.6309 59.8431C46.5429 59.8464 46.4548 59.8496 46.3667 59.8529C46.2787 59.8562 46.1906 59.8627 46.0993 59.8627C46.008 59.866 45.9167 59.866 45.8286 59.866H45.7666L45.7047 59.8627C45.6786 59.8594 45.6558 59.8529 45.6395 59.8431C45.6199 59.83 45.6068 59.8071 45.6068 59.7843C45.6068 59.745 45.6329 59.7222 45.6851 59.7091L45.8025 59.6895C45.8482 59.6829 45.8938 59.6764 45.9395 59.6666C45.9852 59.6568 46.0308 59.647 46.0732 59.6372C46.1124 59.6274 46.1482 59.6078 46.1776 59.5784C46.2069 59.5489 46.233 59.5064 46.2559 59.4574C46.2689 59.4247 46.2787 59.3724 46.2885 59.3005C46.2982 59.2286 46.308 59.1338 46.3178 59.0227C46.3243 58.9083 46.3341 58.7906 46.3406 58.6697C46.3472 58.5455 46.3537 58.418 46.357 58.2873L46.37 57.9016L46.3765 57.5323L46.383 57.0126V53.7016C46.383 53.597 46.3733 53.5022 46.3504 53.4205C46.3276 53.3388 46.295 53.2669 46.2526 53.208C46.2102 53.1492 46.1548 53.1067 46.083 53.0773C46.0112 53.0479 45.9232 53.0315 45.8221 53.0315L45.7927 53.0283L45.7601 53.0185C45.7438 53.0152 45.7308 53.0086 45.721 52.9988C45.7079 52.9858 45.7014 52.9727 45.7014 52.9564C45.7014 52.9367 45.7079 52.9204 45.721 52.9073C45.7308 52.8975 45.7471 52.8877 45.7666 52.8844L45.8025 52.8779L45.8319 52.8746C45.9754 52.8746 46.1189 52.8844 46.2559 52.9008C46.3896 52.9171 46.5298 52.9237 46.67 52.9237C47.0549 52.9237 47.4365 52.9171 47.8148 52.9008C48.0039 52.8943 48.1964 52.8877 48.3888 52.8812C48.5812 52.8779 48.7736 52.8746 48.9628 52.8746L49.0867 52.8714L49.3346 52.855L49.4618 52.8518C49.4879 52.8518 49.5074 52.8648 49.5205 52.8877C49.5303 52.9041 49.5335 52.9269 49.5335 52.9564V53.0054L49.527 53.0871V53.123C49.527 53.208 49.5303 53.2897 49.5368 53.3747C49.5303 53.463 49.5335 53.548 49.5335 53.6329ZM58 59.7483C58 59.7777 57.9902 59.8039 57.9674 59.8235C57.9478 59.8398 57.9217 59.8496 57.8859 59.8529L57.8141 59.8594L57.7619 59.8627C57.6608 59.8627 57.5597 59.8627 57.4586 59.8594C57.3608 59.8562 57.2662 59.8529 57.1749 59.8496C57.0836 59.8464 56.9922 59.8366 56.9075 59.8202C56.8194 59.8071 56.7379 59.7875 56.6563 59.7647C56.5748 59.7418 56.4965 59.7091 56.4182 59.6731C56.3432 59.6372 56.2682 59.5914 56.1965 59.5391C56.1247 59.4868 56.0562 59.4247 55.9877 59.3561C55.9193 59.2842 55.854 59.2057 55.7921 59.1175L54.768 57.6597C54.7158 57.5878 54.6636 57.5028 54.6082 57.4081C54.5821 57.3623 54.556 57.3165 54.5267 57.2741C54.4973 57.2316 54.468 57.1891 54.4353 57.1499C54.4027 57.1106 54.3701 57.0747 54.3375 57.0387C54.3016 57.006 54.2657 56.9734 54.2299 56.9439C54.194 56.9178 54.1549 56.8982 54.1125 56.8818C54.0701 56.8688 54.0244 56.8622 53.9755 56.8622H53.0003C52.9645 56.8622 52.9384 56.8688 52.9221 56.8851C52.9058 56.8982 52.8992 56.9211 52.8992 56.9537V58.2742V58.3984L52.9025 58.5455L52.909 58.7155L52.9221 58.8854C52.9253 58.9443 52.9319 58.9998 52.9416 59.0554C52.9482 59.111 52.9579 59.1665 52.971 59.2188C52.9808 59.2711 52.9938 59.3201 53.0069 59.3594C53.0199 59.4019 53.0362 59.4378 53.0493 59.4672C53.0721 59.5163 53.1047 59.5555 53.1438 59.5882C53.183 59.6208 53.2286 59.647 53.2841 59.6633L53.2873 59.6666C53.2971 59.6731 53.3102 59.6764 53.3265 59.6797C53.3428 59.6829 53.3591 59.6862 53.3787 59.6862L53.4993 59.696L53.5548 59.7026L53.6004 59.7124C53.62 59.7156 53.6363 59.7254 53.6461 59.7352C53.6591 59.7483 53.6657 59.7647 53.6657 59.7843C53.6657 59.8071 53.6591 59.8268 53.6428 59.8398C53.6298 59.8529 53.6102 59.8627 53.5874 59.866C53.5515 59.8725 53.5124 59.8758 53.4732 59.8758C53.4015 59.8758 53.3297 59.8725 53.258 59.8692C53.1895 59.866 53.1178 59.8594 53.0493 59.8529C52.9808 59.8464 52.9123 59.8431 52.8438 59.8398C52.7753 59.8366 52.7068 59.8366 52.6318 59.8366C52.5666 59.8366 52.4981 59.8366 52.4329 59.8398C52.3676 59.8431 52.3024 59.8464 52.2339 59.8496C52.1654 59.8529 52.0969 59.8594 52.0285 59.8594C51.96 59.8627 51.8947 59.8627 51.8295 59.8627H51.7121L51.6338 59.8594C51.611 59.8562 51.5914 59.8529 51.5784 59.8431C51.5588 59.83 51.549 59.8137 51.549 59.7908C51.549 59.7581 51.5686 59.7287 51.6077 59.7091C51.6241 59.7026 51.6404 59.696 51.6567 59.6895C51.673 59.6829 51.6925 59.6797 51.7154 59.6764L51.8328 59.6568C51.8491 59.6535 51.8654 59.6503 51.8784 59.6437C51.8915 59.6372 51.9045 59.6306 51.9143 59.6241C51.973 59.5816 52.0219 59.5293 52.0578 59.4705C52.0969 59.4117 52.123 59.3463 52.1393 59.2711C52.1556 59.1927 52.1687 59.1208 52.1785 59.0456C52.1883 58.9737 52.1915 58.905 52.1915 58.8364V53.7473C52.1915 53.6329 52.1785 53.5349 52.1556 53.4499C52.1328 53.3682 52.0969 53.2963 52.048 53.244C52.0024 53.1884 51.9404 53.1459 51.8719 53.1132C51.8002 53.0806 51.7154 53.0609 51.6175 53.0511L51.5686 53.0413L51.5295 53.0315C51.5132 53.0283 51.5001 53.0217 51.4903 53.0119C51.4773 52.9988 51.4708 52.9858 51.4708 52.9694C51.4708 52.9433 51.4773 52.9237 51.4903 52.9106C51.5034 52.8943 51.5229 52.8844 51.5458 52.8812L51.5947 52.8779H51.6436C51.7186 52.8779 51.7936 52.8812 51.8686 52.8844C51.9404 52.8877 52.0154 52.8943 52.0872 52.9008C52.1557 52.9073 52.2274 52.9106 52.3024 52.9139C52.3742 52.9171 52.4492 52.9204 52.5242 52.9204C52.7329 52.9204 52.9384 52.9073 53.1438 52.8877C53.3526 52.8648 53.5646 52.8518 53.7733 52.8518C54.0505 52.8518 54.3147 52.8844 54.5691 52.9498C54.6963 52.9825 54.8169 53.025 54.9278 53.0773C55.042 53.1296 55.1463 53.1884 55.2442 53.2603C55.342 53.329 55.4301 53.4107 55.5116 53.5022C55.5899 53.5904 55.6584 53.6918 55.7203 53.8029C55.779 53.914 55.8247 54.035 55.854 54.1657C55.8834 54.2964 55.8997 54.4403 55.8997 54.5906C55.8997 54.6789 55.8932 54.7704 55.8801 54.8619C55.8671 54.9534 55.8475 55.0417 55.8214 55.1332C55.7953 55.2247 55.7627 55.3129 55.7301 55.4012C55.6942 55.4894 55.6551 55.5744 55.6094 55.6561C55.5638 55.7379 55.5148 55.8196 55.4627 55.8947C55.4105 55.9699 55.3518 56.0451 55.2931 56.117C55.2311 56.1889 55.1691 56.2543 55.1007 56.3164C55.0354 56.3785 54.9669 56.434 54.8952 56.4863C54.8854 56.5027 54.8789 56.5158 54.8724 56.5288C54.8691 56.5419 54.8658 56.5517 54.8658 56.5615C54.8658 56.5811 54.8724 56.6007 54.8854 56.6204L54.9082 56.653C55.355 57.1793 55.8279 57.8885 56.2454 58.4573C56.278 58.4997 56.3171 58.5488 56.3628 58.6043L56.5193 58.7906C56.5781 58.8593 56.64 58.9279 56.702 58.9933C56.7672 59.0619 56.8324 59.1273 56.9009 59.1927C56.9694 59.258 57.0412 59.3201 57.1129 59.3757C57.1847 59.4313 57.2564 59.4836 57.3314 59.5293C57.4032 59.5751 57.4717 59.611 57.5401 59.6306C57.6054 59.6535 57.6673 59.6633 57.7228 59.6633H57.7652L57.8402 59.6568H57.8891C57.9217 59.6568 57.9478 59.6633 57.9674 59.6797C57.9902 59.6927 58 59.7189 58 59.7483ZM55.205 54.9338C55.205 54.8063 55.1952 54.6821 55.1724 54.5677C55.1496 54.4533 55.117 54.3455 55.0746 54.2409C55.0322 54.1396 54.98 54.0448 54.918 53.9598C54.8593 53.8748 54.7876 53.7964 54.7126 53.7245C54.6343 53.6558 54.5495 53.5937 54.4582 53.5382C54.3668 53.4859 54.269 53.4401 54.1646 53.4041C54.0603 53.3682 53.9494 53.3388 53.8353 53.3224C53.7211 53.3028 53.6004 53.2963 53.4732 53.2963H53.1797C53.121 53.2963 53.0721 53.3061 53.0362 53.329C53.0003 53.3518 52.971 53.3845 52.9547 53.4303C52.9351 53.4793 52.9188 53.5316 52.909 53.5839C52.8992 53.6362 52.8927 53.6885 52.8927 53.7408V56.3621C52.8927 56.3719 52.896 56.3785 52.9058 56.3883C52.9188 56.3981 52.9384 56.4079 52.9645 56.4177C52.9971 56.4275 53.0297 56.4373 53.0656 56.4439C53.1014 56.4504 53.1406 56.4569 53.1797 56.4602C53.2188 56.4635 53.258 56.47 53.2971 56.47C53.3363 56.4733 53.3754 56.4733 53.4145 56.4733H53.9918H54.1092L54.2527 56.47C54.3505 56.4667 54.4321 56.4504 54.4908 56.421C54.5527 56.3916 54.6115 56.3589 54.6636 56.3164C54.7158 56.2739 54.7647 56.2249 54.8104 56.1693C54.8561 56.1137 54.8952 56.0516 54.9311 55.9895C54.9669 55.9274 54.9996 55.8621 55.0289 55.7934C55.0583 55.7248 55.0844 55.6529 55.1039 55.581C55.1267 55.5091 55.1431 55.4339 55.1594 55.3587C55.1724 55.2835 55.1855 55.2084 55.192 55.1397C55.2018 55.0678 55.205 54.9992 55.205 54.9338ZM9.16116 53.6329C9.16116 53.6591 9.15463 53.682 9.14485 53.695C9.1318 53.7146 9.11224 53.7245 9.08615 53.7245C9.05353 53.7245 9.02744 53.7114 9.01113 53.682L8.99809 53.6624C8.99157 53.6558 8.98178 53.646 8.97852 53.6362C8.95243 53.5904 8.9296 53.5545 8.90677 53.5251C8.88394 53.4957 8.86437 53.476 8.84154 53.4597C8.82198 53.4434 8.78936 53.4303 8.75023 53.4139C8.71109 53.3976 8.65891 53.3813 8.59694 53.3649C8.55128 53.3518 8.50889 53.342 8.46323 53.3355C8.41757 53.329 8.37191 53.3224 8.32625 53.3192L8.18601 53.3126L8.04903 53.3094H6.86842C6.79015 53.3094 6.73797 53.3159 6.71514 53.329C6.70861 53.3322 6.70209 53.342 6.69883 53.3616C6.69231 53.3845 6.68905 53.4172 6.68905 53.4597V55.7673C6.68905 55.8032 6.68905 55.8326 6.69231 55.8555C6.69557 55.8784 6.69883 55.8947 6.70535 55.9045C6.70861 55.9078 6.71514 55.9144 6.73144 55.9176C6.75101 55.9242 6.78363 55.9274 6.82276 55.9274H7.93489H7.99685L8.14687 55.9176L8.22841 55.9078L8.30668 55.8947C8.33277 55.8915 8.3556 55.8849 8.37843 55.8784C8.40126 55.8719 8.42083 55.8653 8.43714 55.8555C8.45344 55.8457 8.46649 55.8392 8.47627 55.8261L8.47953 55.8228C8.50889 55.8 8.53498 55.7738 8.55454 55.7444C8.57411 55.715 8.58716 55.6856 8.59694 55.6561L8.60673 55.6136L8.61977 55.5417C8.62629 55.5091 8.63282 55.4829 8.64586 55.4633C8.66217 55.4372 8.68174 55.4241 8.70783 55.4241C8.73392 55.4241 8.75675 55.4372 8.76979 55.4633C8.77958 55.4829 8.7861 55.5091 8.7861 55.5417C8.78936 55.5744 8.78936 55.6137 8.79262 55.6463C8.79262 55.6823 8.79262 55.7182 8.78936 55.7575C8.7861 55.7934 8.78284 55.8326 8.77958 55.8719C8.77632 55.9078 8.76979 55.9438 8.76979 55.9797C8.76653 56.0157 8.76653 56.0516 8.76653 56.0876L8.76979 56.2608L8.7861 56.6073L8.78936 56.7838V56.8132L8.7861 56.8491C8.78284 56.8688 8.77632 56.8851 8.76653 56.8982C8.75349 56.9112 8.73718 56.9211 8.71761 56.9211C8.69152 56.9211 8.67195 56.908 8.65565 56.8818C8.64586 56.8655 8.63934 56.8393 8.63608 56.8067L8.62955 56.7446C8.62629 56.7282 8.62629 56.7151 8.62303 56.7086C8.61325 56.6857 8.60346 56.6596 8.58716 56.6334C8.57085 56.6073 8.55128 56.5811 8.53171 56.5517C8.50888 56.519 8.47953 56.4961 8.44692 56.4765C8.41431 56.4569 8.37517 56.4471 8.32951 56.4439C8.28059 56.4406 8.23493 56.434 8.19253 56.434C8.15014 56.4308 8.10774 56.4308 8.0686 56.4308H6.80972C6.7771 56.4308 6.75101 56.434 6.73471 56.4373C6.72166 56.4406 6.71514 56.4439 6.71514 56.4504C6.71188 56.4602 6.70535 56.4733 6.70535 56.4929C6.70209 56.5125 6.70209 56.5386 6.70209 56.5713V58.8625C6.70209 58.9377 6.70862 59.0064 6.72492 59.0652C6.73144 59.0913 6.74449 59.1208 6.7608 59.1436C6.7771 59.1698 6.79993 59.1959 6.82602 59.2188C6.84559 59.2384 6.87168 59.258 6.90103 59.2711C6.93039 59.2875 6.96626 59.3005 7.0054 59.3103C7.0478 59.3234 7.09019 59.3332 7.13259 59.3398C7.17499 59.3496 7.21739 59.3561 7.26305 59.3626C7.3087 59.3692 7.35436 59.3757 7.39676 59.379C7.43916 59.3822 7.48482 59.3855 7.52722 59.3888L7.65115 59.392H7.75551L7.90227 59.3888L8.07839 59.3822C8.14361 59.379 8.20558 59.3724 8.27081 59.3659C8.33603 59.3594 8.398 59.3463 8.45996 59.3332C8.52193 59.3201 8.58064 59.3038 8.6426 59.2875C8.70131 59.2711 8.75675 59.2482 8.81219 59.2286C8.86437 59.2057 8.91003 59.1829 8.95243 59.1534C8.99157 59.124 9.02418 59.0913 9.05353 59.0554C9.06332 59.0423 9.06984 59.0292 9.07962 59.0162C9.08941 59.0031 9.09593 58.9868 9.10245 58.9704C9.11224 58.9475 9.12528 58.9312 9.13833 58.9181C9.15463 58.905 9.1742 58.8952 9.19703 58.8952C9.21986 58.8952 9.23943 58.9018 9.25247 58.9148C9.26552 58.9279 9.27204 58.9475 9.27204 58.9704C9.27204 58.99 9.26878 59.0129 9.26226 59.0423C9.25574 59.0685 9.24921 59.1044 9.23617 59.1404L9.1579 59.3855C9.14159 59.4313 9.12854 59.4738 9.11224 59.513C9.09593 59.5522 9.07962 59.5947 9.06332 59.6339C9.04701 59.6731 9.0307 59.7058 9.01766 59.7287C9.00461 59.7549 8.98831 59.7745 8.97852 59.7875C8.95895 59.8071 8.93938 59.8202 8.91655 59.8333C8.89373 59.8464 8.86763 59.8529 8.84154 59.8562L8.77306 59.8627L8.70783 59.866C8.54476 59.866 8.37191 59.866 8.18601 59.8627C8.00337 59.8594 7.81422 59.8562 7.61853 59.8529C7.42285 59.8464 7.23369 59.8431 7.05432 59.8431C6.87494 59.8398 6.70209 59.8398 6.52924 59.8398C6.43792 59.8398 6.3466 59.8398 6.25855 59.8431C6.17049 59.8464 6.08243 59.8496 5.99438 59.8529C5.90632 59.8562 5.81826 59.8627 5.72695 59.8627C5.63563 59.866 5.54431 59.866 5.45625 59.866H5.39429L5.33232 59.8627C5.30623 59.8594 5.2834 59.8529 5.26709 59.8431C5.24753 59.83 5.23448 59.8071 5.23448 59.7843C5.23448 59.745 5.26057 59.7222 5.31275 59.7091L5.43016 59.6895C5.47582 59.6829 5.52148 59.6764 5.56388 59.6666C5.60954 59.6568 5.6552 59.647 5.69759 59.6372C5.73673 59.6274 5.77261 59.6078 5.80196 59.5784C5.83131 59.5489 5.8574 59.5097 5.88023 59.4574C5.89328 59.4247 5.90306 59.3724 5.91284 59.3005C5.92263 59.2286 5.93241 59.1338 5.9422 59.0227C5.94872 58.9083 5.9585 58.7906 5.96503 58.6697C5.97155 58.5455 5.97807 58.418 5.98133 58.2873L5.99438 57.9016L6.0009 57.5323L6.00742 57.0126V53.7016C6.00742 53.597 5.99764 53.5022 5.97481 53.4205C5.95198 53.3388 5.91937 53.2669 5.87697 53.208C5.79217 53.0904 5.64867 53.0315 5.44647 53.0315L5.41712 53.0283L5.3845 53.0185C5.3682 53.0152 5.35515 53.0086 5.34537 52.9988C5.33232 52.9858 5.3258 52.9727 5.3258 52.9564C5.3258 52.9367 5.33232 52.9204 5.34537 52.9073C5.35515 52.8975 5.37146 52.8877 5.39103 52.8844L5.4269 52.8779L5.45625 52.8746C5.59975 52.8746 5.74325 52.8844 5.88023 52.9008C5.94872 52.9073 6.01721 52.9139 6.0857 52.9204C6.15418 52.9237 6.22593 52.9269 6.29768 52.9269C6.68252 52.9269 7.0641 52.9204 7.44242 52.9041C7.63158 52.8975 7.824 52.891 8.01642 52.8844C8.20884 52.8812 8.40126 52.8779 8.59042 52.8779L8.71435 52.8746L8.96221 52.8583L9.08941 52.855C9.1155 52.855 9.13507 52.8681 9.14811 52.891C9.1579 52.9073 9.16116 52.9302 9.16116 52.9596V53.0086L9.15463 53.0904V53.1263C9.15463 53.2113 9.1579 53.293 9.16442 53.378C9.1579 53.463 9.16116 53.548 9.16116 53.6329ZM16.1274 52.9596C16.1274 52.9956 16.1242 53.0348 16.1176 53.074C16.1111 53.11 16.1013 53.1492 16.0915 53.1884C16.0818 53.2244 16.072 53.2571 16.0622 53.293C16.0524 53.329 16.0459 53.3649 16.0394 53.3976C16.0296 53.4434 16.0231 53.4859 16.0165 53.5283C16.0133 53.5708 16.01 53.6133 16.01 53.6558C16.01 53.6885 16.0067 53.7146 16.0002 53.7343C15.9904 53.7637 15.9709 53.78 15.9448 53.78C15.9285 53.78 15.9122 53.7735 15.8991 53.7571C15.8893 53.7473 15.8828 53.7343 15.8763 53.7179C15.873 53.7081 15.8665 53.695 15.86 53.682C15.8535 53.6722 15.8469 53.6591 15.8372 53.646C15.8209 53.6231 15.798 53.6035 15.7687 53.5839C15.7393 53.5643 15.7034 53.548 15.6578 53.5349L15.5339 53.4989C15.498 53.4891 15.4654 53.4793 15.436 53.4728C15.3153 53.4466 15.1914 53.4336 15.0707 53.4303L14.8653 53.427H14.6305H13.8379C13.8119 53.427 13.7923 53.4336 13.7792 53.4434C13.7629 53.4532 13.7531 53.4728 13.7466 53.4957C13.7368 53.5251 13.7303 53.5741 13.7271 53.6493C13.7238 53.7245 13.7205 53.8225 13.7205 53.9402V58.4311C13.7205 58.4997 13.7205 58.5684 13.7238 58.637C13.7271 58.7057 13.7303 58.7743 13.7336 58.8462C13.7368 58.9148 13.7434 58.9835 13.7499 59.0489C13.7564 59.1142 13.7662 59.1796 13.776 59.2384C13.7858 59.2973 13.7988 59.3496 13.8119 59.3953C13.8249 59.4378 13.8412 59.4738 13.8575 59.4999C13.8771 59.5261 13.8966 59.5555 13.926 59.5784C13.9521 59.6045 13.9847 59.6306 14.0206 59.6568C14.0565 59.6797 14.0891 59.6993 14.1249 59.7124C14.1576 59.7254 14.1902 59.7287 14.2228 59.7287H14.2717L14.3826 59.7222H14.4348C14.4641 59.7222 14.4902 59.7287 14.5065 59.7418C14.5261 59.7581 14.5391 59.7777 14.5391 59.8071C14.5391 59.8366 14.5228 59.8562 14.487 59.8692C14.4641 59.8791 14.4315 59.8823 14.3891 59.8856L14.2424 59.8889C14.1739 59.8889 14.1054 59.8856 14.0336 59.8823C13.9651 59.8791 13.8934 59.8725 13.8249 59.866C13.7564 59.8594 13.6879 59.8562 13.6162 59.8529C13.5477 59.8496 13.4792 59.8496 13.4107 59.8496C13.3259 59.8496 13.2411 59.8529 13.1563 59.8529C13.0715 59.8562 12.9867 59.8594 12.8987 59.866C12.8139 59.8725 12.7258 59.8791 12.641 59.8823C12.553 59.8856 12.4682 59.8889 12.3866 59.8889L12.3638 59.8856L12.341 59.8823C12.3279 59.8791 12.3149 59.8725 12.3084 59.8627C12.2986 59.8529 12.2953 59.8398 12.2953 59.8235C12.2953 59.7973 12.3084 59.7745 12.3377 59.7614C12.3573 59.7516 12.3834 59.745 12.4193 59.7418L12.4943 59.732C12.5138 59.7287 12.5269 59.7254 12.5334 59.7222L12.5399 59.7189C12.5986 59.7124 12.6508 59.7058 12.6965 59.696C12.7421 59.6862 12.7813 59.6764 12.8171 59.6633C12.8465 59.6535 12.8726 59.6339 12.8954 59.6078C12.9182 59.5816 12.9378 59.5424 12.9541 59.4999C12.9639 59.477 12.9704 59.4411 12.9769 59.3986C12.9835 59.3528 12.99 59.2973 12.9933 59.2319L13.0063 59.026L13.0161 58.807L13.0226 58.588L13.0259 58.3788V53.6525C13.0259 53.6199 13.0226 53.5872 13.0193 53.561C13.0128 53.5349 13.0063 53.5087 12.9965 53.4859C12.99 53.4695 12.9769 53.4564 12.9574 53.4466C12.9345 53.4368 12.9052 53.4303 12.8693 53.4303H11.131C11.0691 53.4303 11.0136 53.4336 10.9679 53.4434C10.9256 53.4499 10.8897 53.463 10.8636 53.476C10.8375 53.4924 10.8114 53.5055 10.7918 53.5218C10.7723 53.5381 10.7592 53.5512 10.7462 53.5676C10.7331 53.5839 10.7266 53.6003 10.7201 53.6133C10.7136 53.6264 10.7103 53.6395 10.7103 53.6525C10.7038 53.7048 10.681 53.7343 10.6418 53.7343C10.6222 53.7343 10.6059 53.7277 10.5929 53.7179C10.5798 53.7081 10.5733 53.6918 10.5668 53.6754L10.5603 53.6427V53.6035C10.5603 53.5872 10.5635 53.5708 10.5668 53.548C10.5701 53.5283 10.5766 53.5055 10.5831 53.4793L10.6059 53.4041L10.6875 53.1753L10.707 53.11L10.7201 53.0544C10.7233 53.0479 10.7266 53.0315 10.7299 53.0119L10.7397 52.9302C10.7429 52.891 10.7527 52.8616 10.7625 52.8387C10.7788 52.8093 10.8016 52.7962 10.831 52.7962C10.8571 52.7962 10.8799 52.7995 10.9027 52.8027C10.9256 52.806 10.9484 52.8158 10.9712 52.8223L11.0299 52.8452L11.0951 52.8648C11.1571 52.8779 11.2223 52.8877 11.2876 52.8943C11.3528 52.9008 11.4213 52.9073 11.493 52.9106L11.7018 52.9171L11.9072 52.9204H15.0218C15.1099 52.9204 15.1979 52.9171 15.2795 52.9139C15.3643 52.9106 15.4458 52.9073 15.5306 52.9008C15.6121 52.8943 15.6969 52.891 15.785 52.8877C15.873 52.8844 15.9578 52.8812 16.0459 52.8812C16.0687 52.8812 16.0915 52.8877 16.1046 52.8975C16.1176 52.9139 16.1274 52.9335 16.1274 52.9596ZM18.2082 53.3584C18.2082 53.4041 18.2016 53.4532 18.1886 53.5087C18.1756 53.561 18.156 53.6231 18.1332 53.6885C18.1071 53.7539 18.081 53.8192 18.0516 53.8846C18.0223 53.95 17.9897 54.0186 17.957 54.084C17.9212 54.1526 17.8853 54.218 17.8494 54.2801C17.8135 54.3422 17.7744 54.4043 17.7353 54.4599L17.6276 54.6135C17.595 54.6592 17.5657 54.6985 17.5396 54.7312C17.5298 54.7442 17.5135 54.7606 17.5005 54.7736C17.4907 54.7835 17.4809 54.7933 17.4711 54.7998C17.4613 54.8063 17.4483 54.8129 17.4352 54.8194L17.4287 54.8227H17.4222C17.4026 54.8227 17.3896 54.8161 17.3765 54.7998C17.37 54.79 17.3667 54.7736 17.3667 54.7573C17.3667 54.7475 17.37 54.7279 17.3798 54.7083C17.3863 54.6919 17.3993 54.6691 17.4157 54.6429L17.4613 54.5579L17.5135 54.4566C17.5298 54.4206 17.5494 54.3814 17.5624 54.3422C17.5787 54.2997 17.595 54.2605 17.6081 54.218C17.6211 54.1755 17.6342 54.133 17.6407 54.0905C17.6472 54.048 17.6505 54.0055 17.6505 53.9598C17.6505 53.9108 17.6472 53.8617 17.6374 53.8192C17.6309 53.7768 17.6179 53.7375 17.6048 53.7048C17.5885 53.6689 17.5722 53.6362 17.5559 53.6035C17.5396 53.5741 17.52 53.5447 17.5037 53.5218L17.4483 53.4532C17.432 53.4336 17.4157 53.4139 17.3993 53.3976C17.3798 53.378 17.3667 53.3616 17.357 53.342C17.3472 53.3224 17.3406 53.3028 17.3406 53.2832C17.3406 53.2669 17.3472 53.2473 17.3602 53.2244C17.3733 53.2048 17.3896 53.1819 17.4091 53.1557C17.432 53.1296 17.4548 53.1002 17.4809 53.074C17.507 53.0479 17.5331 53.0185 17.5624 52.9923C17.5918 52.9629 17.6244 52.9367 17.6505 52.9139C17.6798 52.8877 17.7092 52.8648 17.7418 52.8452C17.7744 52.8223 17.8005 52.806 17.8266 52.7929C17.8527 52.7799 17.8788 52.7733 17.9016 52.7733C17.9244 52.7733 17.944 52.7831 17.9668 52.7995C17.9831 52.8125 18.0027 52.8354 18.019 52.8616C18.0353 52.8877 18.0516 52.9139 18.0679 52.9433C18.0842 52.9727 18.0973 53.0054 18.1103 53.0381L18.1462 53.1361L18.1788 53.2276C18.1886 53.2571 18.1951 53.2832 18.2016 53.3061C18.2049 53.3257 18.2082 53.3453 18.2082 53.3584ZM23.3579 57.9081C23.3579 58.0814 23.3383 58.2448 23.2991 58.4017C23.26 58.5586 23.2013 58.7089 23.123 58.8495C23.0448 58.99 22.9534 59.1208 22.8491 59.2417C22.7415 59.3626 22.6208 59.477 22.4871 59.5784C22.386 59.6535 22.2816 59.7189 22.1805 59.7745C22.0794 59.83 21.975 59.8725 21.8739 59.9019C21.7728 59.9346 21.6652 59.9575 21.5543 59.9738C21.4402 59.9902 21.3228 59.9967 21.1988 59.9967C21.0945 59.9967 20.9803 59.9902 20.8629 59.9804C20.7455 59.9706 20.6216 59.9542 20.4911 59.9346C20.3607 59.915 20.2367 59.8889 20.1226 59.8594C20.0084 59.83 19.9008 59.7941 19.803 59.7549L19.754 59.7352L19.7117 59.7156C19.6921 59.7058 19.6758 59.6928 19.666 59.6731C19.6562 59.6568 19.6497 59.6339 19.6432 59.611V59.6078C19.6366 59.5489 19.6301 59.4868 19.6269 59.428C19.6236 59.3692 19.6203 59.3071 19.6171 59.2482L19.6138 59.0685V58.892C19.6138 58.8331 19.6138 58.7776 19.6171 58.7253C19.6203 58.673 19.6236 58.6272 19.6269 58.5847C19.6334 58.539 19.6399 58.503 19.6529 58.4769C19.6693 58.4442 19.6953 58.4246 19.7247 58.4246C19.7606 58.4246 19.7867 58.4507 19.803 58.503L19.8193 58.5651C19.8356 58.637 19.8486 58.7122 19.8617 58.7841C19.8649 58.8103 19.8715 58.8331 19.878 58.8527C19.8845 58.8756 19.8943 58.8952 19.9008 58.9116C19.9367 58.9835 19.9758 59.0521 20.0182 59.111C20.0606 59.1698 20.1095 59.2221 20.1617 59.2678C20.2139 59.3136 20.2693 59.3561 20.328 59.392C20.3868 59.428 20.4455 59.4607 20.5107 59.4868C20.5759 59.513 20.6411 59.5359 20.7064 59.5555C20.7716 59.5751 20.8401 59.5882 20.9118 59.598C20.9836 59.6078 21.0521 59.6143 21.1238 59.6208C21.1956 59.6241 21.2641 59.6274 21.3358 59.6274C21.4108 59.6274 21.4826 59.6241 21.5576 59.6176C21.6293 59.611 21.7043 59.598 21.7794 59.5849C21.9229 59.5555 22.0566 59.4999 22.174 59.4117C22.262 59.3528 22.3436 59.2776 22.4186 59.1959C22.4936 59.111 22.5588 59.0162 22.6175 58.905C22.7349 58.6893 22.7936 58.4736 22.7936 58.2579C22.7936 58.1827 22.7871 58.1075 22.7741 58.0389C22.761 57.9702 22.7382 57.9016 22.7088 57.8362C22.6795 57.7709 22.6469 57.7088 22.611 57.6467C22.5751 57.5878 22.5327 57.529 22.4903 57.4767C22.4447 57.4211 22.3958 57.3688 22.3468 57.3198C22.2946 57.2708 22.2425 57.2218 22.1838 57.1793C22.1251 57.1335 22.0664 57.091 22.0077 57.0485C21.9457 57.006 21.887 56.9635 21.825 56.9276L20.7814 56.2739C20.6216 56.1758 20.4813 56.0614 20.3574 55.934C20.2335 55.8065 20.1258 55.6627 20.0345 55.5091C19.9432 55.3522 19.8747 55.1887 19.8291 55.0155C19.7834 54.8423 19.7606 54.6625 19.7606 54.4729C19.7606 54.3291 19.7769 54.1886 19.8128 54.048C19.8486 53.9075 19.9008 53.7702 19.9693 53.6329C20.0378 53.4957 20.1226 53.3747 20.2204 53.2734C20.3183 53.1688 20.4324 53.0838 20.5563 53.0119C20.6379 52.9662 20.7227 52.9237 20.8205 52.8943C20.9151 52.8616 21.0162 52.8354 21.1271 52.8191C21.2347 52.7995 21.3391 52.7864 21.4369 52.7799C21.538 52.77 21.6293 52.7668 21.7174 52.7668C21.7957 52.7668 21.8674 52.7701 21.9359 52.7733C22.0044 52.7766 22.0664 52.7831 22.1251 52.7897C22.1805 52.7962 22.2359 52.8027 22.2914 52.8125C22.3436 52.8223 22.3958 52.8289 22.4414 52.8387L22.5784 52.8648L22.7056 52.8877C22.7447 52.8943 22.7839 52.8975 22.8262 52.9008C22.8686 52.9041 22.9078 52.9041 22.9502 52.9041C23.0252 52.9041 23.0643 52.9008 23.0676 52.8943C23.0774 52.8812 23.0937 52.8714 23.11 52.8648C23.1263 52.8583 23.1426 52.8583 23.1622 52.8583C23.185 52.8583 23.2013 52.8648 23.2111 52.8812C23.2209 52.8943 23.2241 52.9106 23.2241 52.9302C23.2241 52.9498 23.2209 52.9727 23.2176 52.9956C23.2144 53.0185 23.2078 53.0413 23.2013 53.0609C23.1948 53.0806 23.1915 53.1002 23.1883 53.1198C23.185 53.1394 23.185 53.1557 23.185 53.1753V53.2897L23.1915 53.5185V53.6362C23.1883 53.731 23.1817 53.8258 23.1752 53.9206C23.172 53.9467 23.172 53.9729 23.1654 53.9957C23.1622 54.0186 23.1556 54.0415 23.1491 54.0611C23.1426 54.084 23.1328 54.1003 23.1198 54.1134C23.1035 54.1297 23.0872 54.1396 23.0676 54.1396C23.0448 54.1396 23.0252 54.1265 23.0121 54.1036C23.0024 54.0873 22.9958 54.0676 22.9926 54.0415C22.9893 54.0186 22.9861 53.9957 22.9795 53.9663L22.9567 53.8748C22.9469 53.8421 22.9339 53.8062 22.9208 53.7702C22.9078 53.7343 22.8882 53.6983 22.8719 53.6591C22.8523 53.6231 22.8295 53.5872 22.8034 53.5512C22.7773 53.5185 22.748 53.4859 22.7154 53.4532C22.6795 53.4237 22.6436 53.3976 22.6012 53.3715C22.5588 53.3453 22.5164 53.3224 22.4675 53.2996C22.4186 53.2767 22.3697 53.2571 22.3207 53.2374C22.2718 53.2178 22.2196 53.2015 22.1675 53.1884C22.112 53.1753 22.0598 53.1623 22.0077 53.1492C21.9555 53.1394 21.9 53.1296 21.8446 53.1198C21.7891 53.1132 21.7402 53.1067 21.6913 53.1002C21.6424 53.0969 21.6 53.0936 21.5576 53.0936C21.476 53.0936 21.3945 53.1002 21.3162 53.11C21.238 53.1231 21.1597 53.1394 21.0847 53.1623C21.0097 53.1851 20.9412 53.2146 20.876 53.2505C20.8107 53.2865 20.7488 53.3257 20.6933 53.3715C20.6379 53.4172 20.5857 53.4695 20.54 53.5251C20.4944 53.5806 20.4552 53.646 20.4194 53.7114C20.3835 53.78 20.3607 53.8519 20.3411 53.9304C20.3248 54.0088 20.315 54.0905 20.315 54.182C20.315 54.2605 20.3215 54.3389 20.3346 54.4141C20.3476 54.4893 20.3672 54.5612 20.3933 54.6298C20.4194 54.6985 20.452 54.7671 20.4879 54.8325C20.5237 54.8978 20.5661 54.9632 20.6118 55.0221C20.6574 55.0842 20.7096 55.143 20.7618 55.1986C20.814 55.2541 20.8694 55.3064 20.9281 55.3554C20.9868 55.4045 21.0488 55.4535 21.1108 55.496C21.1727 55.5385 21.2347 55.581 21.2999 55.6202L22.3044 56.2575C22.4642 56.3589 22.6077 56.4667 22.7349 56.5779C22.8621 56.689 22.973 56.8067 23.0676 56.9243C23.1622 57.0485 23.2339 57.1891 23.2828 57.3525C23.3318 57.5257 23.3579 57.7088 23.3579 57.9081ZM32.2255 58.9475C32.2255 58.9769 32.219 59.0194 32.2027 59.0717C32.1863 59.124 32.1668 59.1861 32.1342 59.2613C32.1048 59.3332 32.0787 59.4149 32.0559 59.4966C32.0331 59.5816 32.0135 59.6699 31.9972 59.7614C31.9939 59.781 31.9907 59.7941 31.9874 59.8071C31.9809 59.8235 31.9744 59.8333 31.9678 59.8398C31.9581 59.8496 31.945 59.8529 31.9287 59.8562C31.9157 59.8594 31.9026 59.8594 31.883 59.8594L31.2406 59.8562L29.9588 59.8431L29.3164 59.8398L29.0946 59.8431L28.8761 59.8496C28.8043 59.8529 28.7326 59.8562 28.6576 59.8562L28.4358 59.8594H28.3869L28.3412 59.8562C28.3184 59.8529 28.3021 59.8464 28.289 59.8366C28.2727 59.8235 28.2629 59.8071 28.2629 59.7843V59.7777C28.2662 59.7549 28.276 59.7352 28.2923 59.7222C28.3086 59.7124 28.3282 59.7058 28.351 59.7058H28.364C28.3836 59.7058 28.3999 59.7091 28.413 59.7058L28.4293 59.7026L28.439 59.6993C28.4717 59.6927 28.5043 59.6862 28.5336 59.6731C28.563 59.6633 28.5891 59.6503 28.6119 59.6339C28.6347 59.6208 28.6543 59.6012 28.6739 59.5784C28.6934 59.5555 28.7097 59.5261 28.726 59.4934C28.7424 59.464 28.7554 59.428 28.7684 59.3855C28.7815 59.343 28.7913 59.2973 28.8011 59.245C28.8108 59.1927 28.8206 59.1371 28.8272 59.0783C28.8337 59.0227 28.8402 58.9639 28.8435 58.9018L28.8565 58.7187L28.863 58.5455L28.8663 58.3886V58.2579V53.8258C28.8663 53.7735 28.863 53.7212 28.8598 53.6656C28.8532 53.6068 28.8467 53.548 28.8369 53.4891C28.8271 53.4303 28.8141 53.3747 28.7913 53.3257C28.7717 53.2767 28.7456 53.2309 28.7163 53.1917C28.7 53.1688 28.6771 53.1492 28.6576 53.1329C28.6347 53.1165 28.6119 53.1034 28.5825 53.0969L28.4912 53.0708C28.4456 53.0609 28.4097 53.0544 28.3673 53.0381L28.3314 53.0283C28.3119 53.025 28.2955 53.0152 28.2825 53.0054C28.2662 52.9923 28.2597 52.9727 28.2597 52.9531C28.2597 52.9237 28.276 52.9008 28.3119 52.891C28.3347 52.8845 28.3673 52.8779 28.4097 52.8779C28.4782 52.8779 28.5467 52.8812 28.6152 52.8844C28.6836 52.8877 28.7489 52.8943 28.8174 52.9008C28.8826 52.9073 28.9511 52.9106 29.0163 52.9139C29.0815 52.9171 29.15 52.9171 29.2185 52.9171C29.287 52.9171 29.3522 52.9139 29.4207 52.9139C29.4892 52.9106 29.5544 52.9041 29.6197 52.9008C29.6881 52.8943 29.7566 52.8877 29.8219 52.8844C29.8904 52.8812 29.9588 52.8779 30.0273 52.8779C30.0567 52.8779 30.0763 52.8844 30.0926 52.8975C30.1121 52.9139 30.1186 52.9335 30.1186 52.9629C30.1186 52.9923 30.0926 53.0152 30.0404 53.0348C30.0208 53.0413 29.9719 53.0642 29.9523 53.0675C29.9197 53.074 29.8904 53.0806 29.8643 53.0904C29.8382 53.1002 29.8153 53.11 29.7925 53.1198C29.7729 53.1296 29.7534 53.1427 29.7305 53.1623C29.711 53.1819 29.6881 53.2048 29.6686 53.2309C29.6458 53.2636 29.6229 53.2995 29.6066 53.3388C29.5903 53.378 29.5773 53.4172 29.5707 53.4597C29.5642 53.5055 29.5577 53.5512 29.5512 53.5937C29.5479 53.6362 29.5446 53.682 29.5446 53.7277V57.9539C29.5446 58.0846 29.5479 58.2154 29.5512 58.3429C29.5544 58.4703 29.5642 58.6011 29.574 58.7318L29.5773 58.8233L29.5838 58.9181C29.587 58.9475 29.5936 58.9802 29.6001 59.0064C29.6066 59.0358 29.6164 59.0619 29.6262 59.0881C29.636 59.1142 29.649 59.1371 29.6653 59.16C29.6816 59.1829 29.6979 59.2025 29.7175 59.2188C29.7371 59.2352 29.7599 59.2515 29.7827 59.2646C29.8088 59.2777 29.8382 59.2907 29.8708 59.2973C29.9588 59.3169 30.0436 59.3332 30.1317 59.343C30.2197 59.3528 30.3111 59.3626 30.3991 59.3659L30.6731 59.3724L30.947 59.3757H31.1427L31.2601 59.3724L31.3808 59.3659C31.4199 59.3626 31.4591 59.3594 31.4949 59.3528C31.5308 59.3463 31.5667 59.3397 31.5993 59.3332C31.6319 59.3267 31.658 59.3169 31.6841 59.3071C31.7069 59.2973 31.7232 59.2875 31.7363 59.2776L31.8309 59.1763L31.8863 59.1142L31.9907 58.9835L32.0396 58.9279C32.0559 58.9116 32.0689 58.8952 32.082 58.8854C32.0983 58.8724 32.1146 58.8658 32.1276 58.8658C32.1505 58.8658 32.17 58.8724 32.1831 58.8854C32.219 58.905 32.2255 58.9247 32.2255 58.9475ZM39.4135 59.7973C39.4135 59.8268 39.4037 59.8464 39.3809 59.8627C39.3646 59.8758 39.3385 59.8823 39.3092 59.8823C39.2309 59.8823 39.1526 59.8791 39.0743 59.8758C38.9928 59.8725 38.9145 59.866 38.8395 59.8594C38.7612 59.8529 38.683 59.8464 38.608 59.8464C38.533 59.8431 38.4547 59.8431 38.3764 59.8431C38.3112 59.8431 38.246 59.8431 38.1807 59.8464C38.1188 59.8496 38.0535 59.8529 37.9883 59.8562C37.9231 59.8594 37.8579 59.866 37.7926 59.866C37.7274 59.8692 37.6589 59.8692 37.5969 59.8692C37.5643 59.866 37.5285 59.866 37.4958 59.8627C37.4665 59.8594 37.4437 59.8562 37.4274 59.8529C37.398 59.8431 37.3817 59.8268 37.3817 59.8039C37.3817 59.7843 37.3882 59.7679 37.4013 59.7549C37.411 59.7418 37.4274 59.7352 37.4437 59.7254L37.4893 59.7124L37.5382 59.6993C37.5545 59.696 37.5741 59.6928 37.5904 59.6928L37.6883 59.6895L37.7111 59.6829C37.747 59.6699 37.7763 59.6568 37.7991 59.6372C37.822 59.6176 37.8415 59.5947 37.8546 59.5685C37.8709 59.5391 37.8807 59.5097 37.8872 59.477C37.8937 59.4443 37.897 59.4117 37.897 59.3724C37.897 59.3397 37.8937 59.3005 37.8872 59.258C37.8807 59.2155 37.8709 59.1665 37.8579 59.1175C37.8448 59.0652 37.8318 59.0194 37.8187 58.9737C37.8057 58.9312 37.7926 58.892 37.7796 58.856L37.3197 57.6336L37.2839 57.5486L37.2512 57.4767C37.2415 57.4571 37.2317 57.4407 37.2219 57.4277C37.2121 57.4146 37.1991 57.4015 37.1893 57.3917C37.1762 57.3819 37.1632 57.3754 37.1469 57.3688C37.1306 57.3623 37.111 57.359 37.0882 57.3558C37.0653 57.3525 37.036 57.3492 37.0034 57.3492L36.8925 57.346H34.9487H34.8509L34.7759 57.3492C34.7563 57.3492 34.7367 57.3525 34.7204 57.359C34.7041 57.3623 34.6911 57.3688 34.678 57.3754C34.6682 57.3819 34.6552 57.3917 34.6487 57.4015C34.6389 57.4113 34.6291 57.4277 34.6193 57.444C34.6095 57.4636 34.5998 57.4865 34.5867 57.5127L34.5508 57.6074C34.4073 57.9964 34.2606 58.3886 34.1203 58.7808C34.0779 58.9246 34.0388 59.0717 34.0062 59.2188C33.9997 59.245 33.9964 59.2711 33.9931 59.294C33.9899 59.3169 33.9899 59.3332 33.9899 59.3496C33.9899 59.4247 34.0029 59.4901 34.0323 59.5424C34.0584 59.5947 34.1008 59.6372 34.1595 59.6699H34.1627C34.1693 59.6731 34.1823 59.6797 34.1986 59.6829C34.2182 59.6895 34.2443 59.6927 34.2801 59.6993C34.3193 59.7058 34.3486 59.7124 34.3682 59.7254C34.3975 59.7418 34.4139 59.7614 34.4139 59.7908C34.4139 59.8137 34.4073 59.83 34.3943 59.8464C34.3812 59.8594 34.3649 59.8692 34.3421 59.8725L34.2801 59.8791C34.2312 59.8791 34.179 59.8791 34.1203 59.8758C34.0616 59.8725 33.9997 59.8692 33.9377 59.866C33.8725 59.8594 33.8105 59.8562 33.7551 59.8562C33.6996 59.8529 33.6474 59.8529 33.5953 59.8529C33.5366 59.8529 33.4811 59.8529 33.4322 59.8562C33.38 59.8594 33.3311 59.8627 33.2887 59.866C33.243 59.8692 33.1941 59.8758 33.1387 59.8758C33.0865 59.8791 33.0278 59.8791 32.9723 59.8791L32.8908 59.8725C32.8647 59.8692 32.8419 59.8627 32.8256 59.8464C32.8093 59.83 32.7995 59.8104 32.7995 59.781C32.7995 59.7516 32.8158 59.732 32.8484 59.7156C32.8712 59.7058 32.9039 59.6993 32.943 59.696C32.9756 59.6927 33.0082 59.6862 33.0376 59.6731C33.0669 59.6633 33.0897 59.647 33.1126 59.6274C33.1452 59.598 33.1811 59.5587 33.2169 59.5097C33.2528 59.464 33.2887 59.4084 33.3213 59.3463C33.3572 59.2809 33.3931 59.2155 33.4289 59.1469C33.4648 59.0783 33.4974 59.0064 33.53 58.9345C33.5659 58.856 33.5985 58.7808 33.6311 58.7089C33.6637 58.6305 33.6964 58.5553 33.7257 58.4769C34.3291 56.9537 34.9389 55.4306 35.5455 53.9075L35.8162 53.1982L35.8945 53.0021L35.963 52.8387L36.0184 52.7112C36.0348 52.672 36.0511 52.6458 36.0674 52.623C36.0869 52.5968 36.1098 52.5805 36.1293 52.5805C36.1554 52.5805 36.1783 52.5903 36.1978 52.6099C36.2141 52.6262 36.2304 52.6491 36.2402 52.6785L36.2663 52.7406C36.2728 52.757 36.2794 52.7668 36.2859 52.7766L36.2891 52.7831C36.3315 52.8844 36.3739 52.9825 36.4098 53.0806C36.4457 53.1786 36.4816 53.2799 36.5109 53.3813C36.5403 53.4826 36.5729 53.5806 36.6088 53.682C36.6446 53.7833 36.6805 53.8846 36.7196 53.9827L38.6373 59.0489L38.6928 59.1796C38.7123 59.2221 38.7319 59.2678 38.7547 59.3071C38.7776 59.3496 38.8004 59.392 38.8265 59.4345C38.8624 59.4966 38.908 59.5489 38.9569 59.5914C39.0058 59.6307 39.058 59.6633 39.1167 59.6829C39.1657 59.6895 39.2178 59.7026 39.2668 59.7124L39.3124 59.7254L39.3548 59.7385C39.3711 59.745 39.3809 59.7483 39.3907 59.7549C39.4037 59.7679 39.4135 59.781 39.4135 59.7973ZM37.0392 56.8524C37.0392 56.8361 37.0164 56.7609 36.9675 56.6236L36.7196 55.9242C36.6577 55.7575 36.5957 55.594 36.5337 55.4273L36.2304 54.6135C36.188 54.4991 36.1522 54.4043 36.1195 54.3291C36.0902 54.254 36.0641 54.1951 36.0445 54.1592C36.025 54.1232 36.0087 54.0938 35.9956 54.0775C35.9858 54.0676 35.9793 54.0611 35.9793 54.0611C35.9663 54.0611 35.9467 54.084 35.9206 54.1297C35.9043 54.1592 35.8847 54.1951 35.8652 54.2441C35.8456 54.2899 35.8228 54.3487 35.7967 54.4174C35.5064 55.1593 35.2162 55.898 34.9324 56.6432C34.9031 56.7184 34.8835 56.774 34.8704 56.8132C34.8574 56.8491 34.8509 56.872 34.8509 56.8786C34.8509 56.8884 34.8509 56.8949 34.8541 56.8982L34.8933 56.9014H34.9455H36.8305L36.9088 56.8982L36.9871 56.8916C37.0066 56.8884 37.0197 56.8851 37.0295 56.8753C37.036 56.8753 37.0392 56.8655 37.0392 56.8524ZM43.9762 57.9081C43.9762 58.0814 43.9566 58.2448 43.9175 58.4017C43.8783 58.5586 43.8196 58.7089 43.7413 58.8495C43.6631 58.99 43.5718 59.1208 43.4674 59.2417C43.3598 59.3626 43.2391 59.477 43.1054 59.5784C43.0043 59.6535 42.8999 59.7189 42.7988 59.7745C42.6977 59.83 42.5933 59.8725 42.4922 59.9019C42.3911 59.9346 42.2835 59.9575 42.1726 59.9738C42.0585 59.9902 41.9411 59.9967 41.8171 59.9967C41.7128 59.9967 41.5986 59.9902 41.4812 59.9804C41.3638 59.9706 41.2399 59.9542 41.1094 59.9346C40.979 59.915 40.855 59.8889 40.7409 59.8594C40.6267 59.83 40.5191 59.7941 40.4213 59.7549L40.3724 59.7352L40.33 59.7156C40.3104 59.7058 40.2941 59.6928 40.2843 59.6731C40.2745 59.6568 40.268 59.6339 40.2615 59.611V59.6078C40.255 59.5489 40.2484 59.4868 40.2452 59.428C40.2419 59.3692 40.2386 59.3071 40.2354 59.2482L40.2321 59.0685V58.892C40.2321 58.8331 40.2321 58.7776 40.2354 58.7253C40.2386 58.673 40.2419 58.6272 40.2452 58.5847C40.2517 58.539 40.2582 58.503 40.2713 58.4769C40.2876 58.4442 40.3137 58.4246 40.343 58.4246C40.3789 58.4246 40.405 58.4507 40.4213 58.503L40.4376 58.5651C40.4539 58.637 40.4669 58.7122 40.48 58.7841C40.4832 58.8103 40.4898 58.8331 40.4963 58.8527C40.5028 58.8756 40.5126 58.8952 40.5191 58.9116C40.555 58.9835 40.5941 59.0521 40.6365 59.111C40.6789 59.1698 40.7278 59.2221 40.78 59.2678C40.8322 59.3136 40.8877 59.3561 40.9464 59.392C41.0051 59.428 41.0638 59.4607 41.129 59.4868C41.1942 59.513 41.2594 59.5359 41.3247 59.5555C41.3899 59.5751 41.4584 59.5882 41.5301 59.598C41.6019 59.6078 41.6704 59.6143 41.7421 59.6208C41.8139 59.6241 41.8824 59.6274 41.9541 59.6274C42.0291 59.6274 42.1009 59.6241 42.1759 59.6176C42.2476 59.611 42.3227 59.598 42.3977 59.5849C42.5412 59.5555 42.6749 59.4999 42.7923 59.4117C42.8803 59.3528 42.9619 59.2776 43.0369 59.1959C43.1119 59.111 43.1771 59.0162 43.2358 58.905C43.3532 58.6893 43.4119 58.4736 43.4119 58.2579C43.4119 58.1827 43.4054 58.1075 43.3924 58.0389C43.3793 57.9702 43.3565 57.9016 43.3272 57.8362C43.2978 57.7709 43.2652 57.7088 43.2293 57.6467C43.1934 57.5878 43.151 57.529 43.1086 57.4767C43.063 57.4211 43.0173 57.3688 42.9651 57.3198C42.9162 57.2708 42.8608 57.225 42.8021 57.1793C42.7434 57.1335 42.6847 57.091 42.626 57.0485C42.564 57.006 42.5053 56.9635 42.4433 56.9276L41.3997 56.2739C41.2399 56.1758 41.0996 56.0614 40.9757 55.934C40.8518 55.8065 40.7442 55.6627 40.6528 55.5091C40.5615 55.3522 40.493 55.1887 40.4474 55.0155C40.4017 54.8423 40.3789 54.6625 40.3789 54.4729C40.3789 54.1853 40.4474 53.9075 40.5876 53.6362C40.6561 53.4989 40.7409 53.378 40.8387 53.2767C40.9366 53.1721 41.0507 53.0871 41.1747 53.0152C41.2562 52.9694 41.341 52.9269 41.4388 52.8975C41.5334 52.8648 41.6345 52.8387 41.7454 52.8223C41.853 52.8027 41.9574 52.7897 42.0552 52.7831C42.1563 52.7733 42.2476 52.77 42.3357 52.77C42.414 52.77 42.4857 52.7733 42.5542 52.7766C42.6227 52.7799 42.6847 52.7864 42.7434 52.7929C42.7988 52.7995 42.8543 52.806 42.9097 52.8158C42.9619 52.8256 43.0141 52.8322 43.0597 52.842L43.1967 52.8681L43.3239 52.891C43.363 52.8975 43.4022 52.9008 43.4446 52.9041C43.4837 52.9073 43.5261 52.9073 43.5685 52.9073C43.6435 52.9073 43.6826 52.9041 43.6859 52.8975C43.6957 52.8844 43.712 52.8746 43.7283 52.8681C43.7446 52.8616 43.7609 52.8616 43.7805 52.8616C43.8033 52.8616 43.8196 52.8681 43.8294 52.8844C43.8392 52.8975 43.8424 52.9139 43.8424 52.9335C43.8424 52.9531 43.8392 52.976 43.8359 52.9988C43.8327 53.0217 43.8261 53.0446 43.8196 53.0642C43.8131 53.0838 43.8098 53.1034 43.8066 53.123C43.8033 53.1427 43.8033 53.159 43.8033 53.1786V53.293L43.8098 53.5218V53.6395C43.8066 53.7343 43.8 53.829 43.7935 53.9238C43.7903 53.95 43.7903 53.9761 43.7837 53.999C43.7805 54.0219 43.774 54.0448 43.7674 54.0644C43.7609 54.0873 43.7511 54.1036 43.7381 54.1167C43.7218 54.133 43.7055 54.1428 43.6859 54.1428C43.6631 54.1428 43.6435 54.1297 43.6305 54.1069C43.6207 54.0905 43.6142 54.0709 43.6109 54.0415C43.6076 54.0186 43.6044 53.9957 43.5978 53.9663L43.575 53.8748C43.5652 53.8421 43.5522 53.8062 43.5391 53.7702C43.5261 53.7343 43.5065 53.6983 43.4902 53.6591C43.4707 53.6231 43.4478 53.5872 43.4217 53.5512C43.3956 53.5185 43.3663 53.4859 43.3337 53.4532C43.2978 53.4237 43.2619 53.3976 43.2195 53.3715C43.1771 53.3453 43.1347 53.3224 43.0858 53.2996C43.0369 53.2767 42.988 53.2571 42.939 53.2374C42.8901 53.2178 42.8379 53.2015 42.7858 53.1884C42.7303 53.1753 42.6781 53.1623 42.626 53.1492C42.5738 53.1394 42.5183 53.1296 42.4629 53.1198C42.4074 53.1132 42.3585 53.1067 42.3096 53.1002C42.2607 53.0969 42.2183 53.0936 42.1759 53.0936C42.0944 53.0936 42.0128 53.1002 41.9346 53.11C41.8563 53.1231 41.778 53.1394 41.703 53.1623C41.628 53.1851 41.5595 53.2146 41.4943 53.2505C41.429 53.2865 41.3671 53.3257 41.3116 53.3715C41.2562 53.4172 41.204 53.4695 41.1583 53.5251C41.1127 53.5806 41.0736 53.646 41.0377 53.7114C41.0051 53.78 40.979 53.8519 40.9594 53.9304C40.9431 54.0088 40.9333 54.0905 40.9333 54.182C40.9333 54.2605 40.9398 54.3389 40.9529 54.4141C40.9659 54.4893 40.9855 54.5612 41.0116 54.6298C41.0377 54.6985 41.0703 54.7671 41.1062 54.8325C41.142 54.8978 41.1844 54.9632 41.2301 55.0221C41.2758 55.0842 41.3279 55.143 41.3801 55.1986C41.4323 55.2541 41.4877 55.3064 41.5464 55.3554C41.6052 55.4045 41.6671 55.4535 41.7291 55.496C41.791 55.5385 41.853 55.581 41.9182 55.6202L42.9227 56.2575C43.0826 56.3589 43.226 56.4667 43.3532 56.5779C43.4804 56.689 43.5913 56.8067 43.6859 56.9243C43.7805 57.0485 43.8522 57.1891 43.9011 57.3525C43.9501 57.5257 43.9762 57.7088 43.9762 57.9081Z" fill="white"/>
</svg>
