<svg width="34" height="35" fill="none" xmlns="http://www.w3.org/2000/svg"><path d="M32.235 26.218c-1.24-1.25-4.245-3.074-5.703-3.81-1.899-.956-2.055-1.034-3.547.075-.995.74-1.657 1.4-2.822 1.152s-3.696-1.65-5.913-3.859c-2.216-2.209-3.698-4.814-3.947-5.975-.25-1.16.422-1.814 1.155-2.812 1.033-1.406.955-1.64.072-3.54-.688-1.476-2.565-4.452-3.82-5.687C6.368.437 6.368.671 5.503 1.03c-.704.297-1.38.657-2.018 1.076-1.25.83-1.944 1.52-2.43 2.557C.572 5.7.354 8.13 2.859 12.682c2.506 4.551 4.264 6.879 7.902 10.507s6.436 5.579 10.526 7.873c5.059 2.833 7 2.28 8.04 1.796 1.04-.484 1.732-1.171 2.564-2.421a12.47 12.47 0 001.078-2.016c.36-.862.595-.862-.733-2.203z" stroke="#fff" stroke-width="1.5" stroke-miterlimit="10"/></svg>