<svg xmlns="http://www.w3.org/2000/svg">
<symbol id="call" viewBox="0 0 34 35"> <path d="M32.2348 26.2178C30.9942 24.9678 27.9895 23.1436 26.5317 22.4085C24.6333 21.4522 24.477 21.3741 22.9848 22.4827C21.9895 23.2225 21.3278 23.8835 20.1629 23.635C18.9981 23.3866 16.4669 21.9858 14.2504 19.7764C12.034 17.5671 10.552 14.9624 10.3028 13.8014C10.0536 12.6405 10.7254 11.9866 11.4583 10.9889C12.4911 9.58268 12.4129 9.34831 11.5301 7.44987C10.8419 5.97331 8.96451 2.99674 7.70982 1.76237C6.36763 0.436586 6.36763 0.670961 5.50279 1.03034C4.79871 1.32658 4.12323 1.68667 3.48482 2.10612C2.23482 2.93659 1.54107 3.62643 1.05592 4.66315C0.57076 5.69987 0.352791 8.13034 2.85826 12.6819C5.36373 17.2335 7.12154 19.5608 10.7598 23.1889C14.3981 26.8171 17.1958 28.7678 21.2856 31.0616C26.345 33.8952 28.2856 33.3428 29.3254 32.8585C30.3653 32.3741 31.0583 31.6866 31.8903 30.4366C32.3108 29.7993 32.6717 29.1245 32.9684 28.421C33.3286 27.5592 33.5629 27.5592 32.2348 26.2178Z" stroke="white" stroke-width="1.5" stroke-miterlimit="10"/> </symbol>
<symbol id="chat-icon" viewBox="0 0 34 34"> <path d="M2.19248 15.125C1.16782 16.9658 0.672138 19.0541 0.76024 21.1591C0.848342 23.264 1.51679 25.3036 2.6917 27.0523C2.87217 27.325 2.97373 27.5359 2.94248 27.6773C2.91123 27.8187 2.01045 32.5109 2.01045 32.5109C1.98878 32.6207 1.997 32.7343 2.03424 32.8399C2.07149 32.9454 2.13639 33.039 2.22217 33.1109C2.33663 33.2021 2.47895 33.2512 2.62529 33.25C2.70349 33.2502 2.7809 33.2342 2.85264 33.2031L7.24404 31.4844C7.54628 31.3652 7.88344 31.3708 8.18154 31.5C9.66123 32.0765 11.2972 32.4375 12.9339 32.4375C15.1302 32.4398 17.2879 31.8605 19.1878 30.7586M30.672 22.0469C30.5939 21.7656 30.7658 21.375 30.9298 21.0938C30.98 21.01 31.0347 20.9292 31.0939 20.8516C32.4972 18.7663 33.2479 16.3104 33.2501 13.7969C33.2736 6.59375 27.1954 0.75 19.6798 0.75C13.1251 0.75 7.65638 5.21094 6.37513 11.1328C6.18346 12.0105 6.08655 12.9063 6.08607 13.8047C6.08607 21.0156 11.9298 27.0156 19.4454 27.0156C20.6408 27.0156 22.2501 26.6562 23.1329 26.4141C24.0158 26.1719 24.8908 25.8516 25.1173 25.7656C25.3496 25.6781 25.5957 25.6331 25.8439 25.6328C26.1147 25.6318 26.383 25.6849 26.6329 25.7891L31.0626 27.3594C31.1597 27.4005 31.2624 27.4268 31.3673 27.4375C31.5331 27.4375 31.6921 27.3717 31.8093 27.2544C31.9265 27.1372 31.9923 26.9783 31.9923 26.8125C31.9869 26.741 31.9738 26.6703 31.9533 26.6016L30.672 22.0469Z" stroke="white" stroke-miterlimit="10" stroke-linecap="round"/> </symbol>
<symbol id="telegram" viewBox="0 0 34 34"> <path fill-rule="evenodd" clip-rule="evenodd" d="M31.7624 3.29836L15.5979 19.4628C15.6149 19.503 15.6306 19.5438 15.6451 19.5851L20.7951 32.276L31.7624 3.29836ZM14.5372 18.4022L30.7017 2.2377L1.71823 13.2072L14.4148 18.355C14.4562 18.3694 14.497 18.3851 14.5372 18.4022ZM33.9076 1.86797L22.077 33.1264C21.9735 33.3875 21.7925 33.6106 21.5584 33.7658C21.3243 33.921 21.0483 34.0007 20.7675 33.9944C20.4868 33.988 20.2147 33.8958 19.9878 33.7302C19.7675 33.5693 19.6001 33.3466 19.5068 33.0905L14.2473 20.1297C14.2413 20.1151 14.2358 20.1002 14.2308 20.0852C14.2063 20.0116 14.1649 19.9448 14.1101 19.89C14.0553 19.8351 13.9884 19.7938 13.9149 19.7693C13.8999 19.7643 13.8852 19.7588 13.8706 19.7529L0.912705 14.4992C0.655121 14.4075 0.430498 14.241 0.267813 14.0207C0.0994479 13.7927 0.00564875 13.5183 -0.000748197 13.2349C-0.00714515 12.9516 0.0741722 12.6732 0.232077 12.4378C0.389981 12.2025 0.616757 12.0216 0.881369 11.9201L0.884545 11.9189L32.1321 0.0925006C32.1326 0.0923251 32.133 0.0921498 32.1335 0.0919747C32.3811 -0.00243673 32.6508 -0.0232718 32.91 0.0319911C33.1697 0.0873584 33.4078 0.216741 33.5956 0.404499C33.7833 0.592258 33.9127 0.83037 33.9681 1.09008C34.0233 1.34936 34.0025 1.61909 33.908 1.86678C33.9079 1.86718 33.9077 1.86757 33.9076 1.86797Z" fill="white"/> </symbol>
<symbol id="viber" viewBox="0 0 35 35"> <path d="M17.4965 2.8C17.9048 3.09169 18.2548 3.15 19.3048 3.20831C22.3965 3.38331 24.3215 4.08331 26.4798 5.65831C29.1631 7.58331 30.8548 10.325 31.4382 13.7083C31.6132 14.5833 31.6715 15.3416 31.7298 16.45C31.7882 17.2667 31.7881 17.5583 31.9632 17.85C32.2548 18.3167 32.7215 18.6083 33.2465 18.6667C33.3048 18.6667 33.3632 18.6667 33.4215 18.6667C33.8882 18.6667 34.3548 18.4334 34.5882 18.025C34.9965 17.5583 34.9965 17.15 34.9382 16.2167C34.8215 13.3584 34.2382 10.7334 33.0715 8.51669C32.2548 6.94169 31.4965 5.89169 30.0965 4.55C28.6382 3.15 27.5298 2.33331 25.7798 1.51669C23.9715 0.641689 22.6881 0.35 20.7631 0.116689C20.4132 0.0583105 19.7132 0 19.1882 0C18.2549 0 17.8465 0 17.4382 0.408311C17.0882 0.7 16.9132 1.16662 16.9132 1.63331C16.9132 2.1 17.1465 2.50831 17.4965 2.8ZM18.1965 1.28331C18.2548 1.225 18.3132 1.16662 18.7215 1.16662C18.8382 1.16662 18.9548 1.16662 19.1298 1.16662C19.5965 1.16662 20.2965 1.22493 20.6465 1.28331C22.4548 1.51662 23.6215 1.75 25.3132 2.56662C26.9465 3.38331 27.9382 4.08331 29.3382 5.42493C30.6215 6.70824 31.3215 7.64162 32.0799 9.09993C33.1299 11.1999 33.7132 13.5916 33.8299 16.3332C33.8299 17.2082 33.8299 17.2666 33.7132 17.3249C33.6549 17.4416 33.4799 17.4416 33.3632 17.4416C33.2465 17.4416 33.0715 17.3833 33.0132 17.2666C32.9549 17.2083 32.9549 17.0916 32.8965 16.3916C32.8382 15.2249 32.7798 14.4083 32.6048 13.4749C31.9048 9.74162 30.0965 6.76662 27.1798 4.66662C24.8465 2.97493 22.6882 2.21662 19.3632 2.04162C18.3715 1.98331 18.3132 1.92493 18.1965 1.86662C18.1382 1.80831 18.0798 1.69162 18.0798 1.57493C18.0798 1.45824 18.1382 1.34169 18.1965 1.28331Z" fill="white"/> <path d="M27.0632 15.3417C27.0632 16.1584 27.1215 16.9167 27.9382 17.325C28.1715 17.4417 28.4632 17.5 28.7549 17.5C28.9882 17.5 29.2799 17.4417 29.4549 17.325C29.7466 17.2083 30.0966 16.8 30.2132 16.5083C30.3882 16.1 30.3299 14.5833 30.2715 14.175C30.0382 12.3083 29.3965 10.5583 28.4048 9.1C26.5381 6.41669 23.7965 4.84169 20.2381 4.31669C19.0131 4.14169 18.1381 4.08338 17.6131 4.9C17.2048 5.48331 17.2631 6.3 17.7298 6.825C18.1381 7.29169 18.6631 7.35 19.1881 7.40831C20.5881 7.525 22.1631 7.99162 23.2131 8.575C24.4381 9.275 25.4298 10.325 26.1298 11.55C26.7132 12.6583 27.0632 14 27.0632 15.3417ZM23.8548 7.58331C22.6298 6.88331 20.8798 6.41662 19.1881 6.3C18.7214 6.3 18.6048 6.18331 18.5464 6.125C18.4298 5.95 18.4298 5.775 18.5464 5.6C18.6631 5.48331 18.7214 5.36669 20.0631 5.54169C23.3298 6.00838 25.7798 7.40838 27.4131 9.8C28.3464 11.0833 28.9298 12.6583 29.1048 14.35C29.2215 14.9333 29.1631 15.925 29.1631 16.1C29.1048 16.1583 28.9881 16.275 28.9298 16.3333C28.8715 16.3333 28.5798 16.3333 28.5215 16.275C28.4048 16.2167 28.2882 16.1583 28.2882 15.3417C28.2882 13.825 27.8799 12.1917 27.1799 10.9667C26.4215 9.56669 25.2548 8.4 23.8548 7.58331Z" fill="white"/> <path d="M23.8548 10.3833C23.0965 9.62498 22.1631 9.15829 20.9381 8.92498C20.6464 8.86667 20.1798 8.80829 19.8881 8.80829C19.4214 8.80829 19.1881 8.80829 18.8381 8.98329C18.4298 9.2166 18.1381 9.62498 18.0214 10.0916C17.9047 10.5583 18.0797 11.0833 18.3714 11.4333C18.7797 11.8416 19.1297 11.9 19.8881 12.0166C21.1714 12.1333 21.8714 12.5999 22.2798 13.4166C22.5131 13.8249 22.6298 14.2916 22.6881 14.9916C22.7464 15.5749 22.8631 15.9833 23.3298 16.3333C23.6215 16.5083 23.9715 16.625 24.3215 16.625C24.7298 16.625 25.0798 16.5083 25.2548 16.3333C25.8381 15.8083 25.8965 15.1083 25.7215 14.1166C25.4298 12.4833 24.9048 11.3167 23.8548 10.3833ZM24.5548 15.4C24.4381 15.5167 24.1465 15.5167 23.9715 15.4C23.9131 15.3417 23.8548 15.3417 23.7965 14.875C23.7381 14.1167 23.6215 13.5333 23.3298 12.95C22.7465 11.725 21.6965 11.025 20.0631 10.85C19.4214 10.7333 19.3631 10.7333 19.3048 10.6167C19.2465 10.5 19.2465 10.3834 19.2465 10.2667C19.3048 10.15 19.3631 10.0334 19.4798 9.97498C19.5381 9.91667 19.5381 9.91667 19.6548 9.91667C19.7131 9.91667 19.8298 9.91667 19.8881 9.91667C20.1798 9.97498 20.5881 9.97498 20.7631 10.0334C21.7548 10.2667 22.5131 10.6167 23.1548 11.2C23.9715 11.9584 24.4381 12.8917 24.6131 14.2334C24.7881 15.1667 24.6715 15.2833 24.5548 15.4Z" fill="white"/> <path d="M34.3549 26.5417C33.9465 26.075 31.4382 24.0917 30.3298 23.3334C29.4548 22.7501 28.0548 21.9334 27.4132 21.5834C26.4799 21.1167 25.4882 21.0584 24.5548 21.3501C24.3798 21.4084 24.2048 21.4667 24.0882 21.5251C23.6215 21.7584 23.2715 22.1667 22.5715 22.9834C21.8715 23.8584 21.6965 24.0334 21.6965 24.0334C21.6382 24.0917 21.5215 24.1501 21.4048 24.2084H21.3465C20.8215 24.5001 19.9465 24.2667 18.4882 23.5667C17.2632 22.9834 16.1549 22.225 14.9299 21.1167C13.8799 20.1834 12.8299 18.9584 12.2465 18.025C11.4299 16.6833 10.9049 15.1667 10.9049 14.4667C10.9049 14.175 11.0215 13.7667 11.1382 13.5917L11.1965 13.5334C11.1965 13.5334 11.2548 13.4751 11.3132 13.4167C11.5465 13.2417 11.8382 13.0084 12.1299 12.775C13.4715 11.725 13.8799 11.3167 14.1132 10.5C14.3465 9.74168 14.1715 8.86668 13.5299 7.64168C12.5965 5.83337 9.56316 1.98337 8.33816 1.16668C8.16316 0.991681 7.81316 0.816681 7.57985 0.75837C7.05485 0.52506 6.35485 0.466681 5.88816 0.58337C5.24647 0.70006 4.54647 1.10837 3.02985 2.27506C2.15485 2.85837 0.871542 4.08337 0.521542 4.66675C-0.295147 6.06675 -0.0617682 7.23344 0.638232 9.27506C1.33823 11.2001 2.27154 13.1251 3.37992 15.0501L3.43823 15.1667C3.67154 15.5167 3.90492 15.9251 4.13823 16.2751L4.19654 16.3917C4.42985 16.7417 4.66323 17.1501 4.89654 17.5001L5.30485 18.0834C5.47985 18.3167 5.59654 18.4917 5.77154 18.7251C6.06323 19.1334 6.41323 19.5417 6.70485 19.9501C10.0882 24.3251 13.9965 27.8834 18.6049 30.7417L18.7799 30.8584C19.4215 31.2667 20.1215 31.6751 20.8799 32.0834L21.1715 32.2584C21.9299 32.6667 22.6299 33.0167 23.3882 33.3667L23.6215 33.4834C24.4965 33.8917 25.2549 34.2417 26.0132 34.5334C26.9465 34.8834 27.3549 35.0001 27.9965 35.0001C28.1132 35.0001 28.2298 35.0001 28.3465 35.0001C28.7549 35.0001 29.1632 34.9418 29.5132 34.8251C30.0382 34.6501 30.5049 34.4168 31.0882 34.0084C31.1465 33.9501 31.2632 33.8334 31.3799 33.7751C31.4966 33.6584 31.6716 33.5418 31.7882 33.4251C32.4299 32.9001 33.1882 32.0834 33.7715 31.2668C34.0632 30.8585 34.4715 30.2168 34.7048 29.6918C34.9382 29.2251 34.9965 28.7001 34.9965 28.2335C34.9965 27.5917 34.7632 27.0083 34.3549 26.5417ZM33.6549 29.2833C33.5382 29.6333 33.2465 30.1 32.8382 30.625C32.3132 31.3833 31.6132 32.0833 31.0298 32.6083C30.9132 32.725 30.7965 32.8416 30.6798 32.9C30.5632 32.9583 30.5048 33.0167 30.3882 33.075C29.9215 33.425 29.5132 33.6 29.1632 33.7167C28.8715 33.775 28.5798 33.8334 28.2882 33.8334C27.6465 33.8334 27.4132 33.8334 26.4798 33.4834C25.7799 33.1334 25.0215 32.8417 24.1465 32.4334L23.9132 32.3167C23.2132 31.9667 22.4549 31.6167 21.7549 31.2084L21.4632 31.0334C20.7632 30.6834 20.0632 30.2751 19.4215 29.8667L19.2465 29.75C14.6965 26.95 10.9049 23.5083 7.63823 19.25C7.34654 18.8417 7.05492 18.4333 6.76323 18.025C6.58823 17.7917 6.41323 17.6167 6.29654 17.3833L5.94654 16.8583C5.65485 16.5083 5.42154 16.1583 5.18823 15.75L5.12992 15.6917C4.89661 15.3417 4.72161 14.9334 4.48823 14.5834L4.42992 14.4667C3.32161 12.6584 2.44661 10.7334 1.74661 8.86668C0.929921 6.76668 1.04661 6.06668 1.5133 5.24999C1.74661 4.89999 2.85499 3.79168 3.72999 3.2083C5.01323 2.21668 5.71323 1.8083 6.12154 1.74999C6.35485 1.69168 6.87985 1.74999 7.17154 1.86668C7.28823 1.92499 7.52154 2.04168 7.69654 2.15837C8.57154 2.74168 11.4882 6.30006 12.4799 8.16668C12.9465 9.04168 13.1215 9.74168 13.0049 10.15C12.8882 10.5583 12.7715 10.7917 11.4299 11.8417C11.0799 12.075 10.7882 12.3667 10.5549 12.5417C10.4965 12.6 10.4382 12.6584 10.3799 12.7167L10.3215 12.775C10.2632 12.8333 10.2049 12.8333 10.2049 12.8917L10.1465 12.95C9.85485 13.3 9.67985 14 9.67985 14.525C9.73816 15.575 10.3215 17.2667 11.1965 18.6667C11.8382 19.6584 13.0049 21 14.1132 21.9917C15.3965 23.1584 16.5632 23.975 17.9049 24.6167C19.6549 25.4334 20.7632 25.6667 21.6966 25.3167H21.7549L21.8716 25.2584C21.9883 25.2001 22.1633 25.1417 22.2216 25.0834C22.2799 25.0251 22.3383 25.0251 22.3966 24.9667C22.4549 24.9084 22.5133 24.85 23.4466 23.7417C24.1466 22.925 24.3799 22.6917 24.6133 22.575C24.6716 22.5167 24.7883 22.5167 24.905 22.4583C25.5467 22.225 26.1883 22.2833 26.8883 22.6333C27.4716 22.9833 28.8133 23.7416 29.63 24.325C30.855 25.1417 33.1883 27.0083 33.4217 27.3C33.7134 27.5917 33.83 27.8833 33.83 28.2917C33.8298 28.5833 33.7715 28.9333 33.6549 29.2833Z" fill="white"/> </symbol>
<symbol id="whatsapp" viewBox="0 0 40 40"> <path d="M20.0662 0C9.13911 0 0.264871 8.87416 0.264871 19.7351C0.264871 23.1788 1.19204 26.4901 2.9139 29.5365L0 40L10.6622 37.1523C13.7748 38.808 17.0198 39.7351 20.0662 39.7351C30.8609 39.7351 40 30.5959 40 19.7351C40 8.87416 31.0596 0 20.0662 0ZM20.0662 38.4106C17.1523 38.4106 14.0397 37.4835 11.0596 35.8279L10.7947 35.6954L1.85433 38.1457L4.30461 29.3378L4.17213 29.0729C2.51647 26.2252 1.58938 22.9802 1.58938 19.7351C1.58938 9.60265 9.86753 1.32451 20.0662 1.32451C30.3311 1.32451 38.6755 9.60265 38.6755 19.7351C38.6755 29.8676 30.1325 38.4106 20.0662 38.4106Z" fill="white"/> <path d="M20.0662 3.31126C10.9934 3.31126 3.57614 10.6622 3.57614 19.7351C3.57614 22.9801 4.5033 26.0265 6.15888 28.7417L6.42375 29.0728L4.63578 35.3643L11.1259 33.7086L11.457 33.9073C14.1722 35.5629 17.1524 36.4238 20.0663 36.4238C29.2054 36.4238 36.6888 28.9404 36.6888 19.7351C36.6888 10.6622 29.2053 3.31126 20.0662 3.31126ZM20 35.1656C17.351 35.1656 14.6358 34.3047 12.1192 32.7815L11.3245 32.2517L6.49011 33.4437L7.81462 28.808L7.2848 27.9471C5.69542 25.4967 4.90073 22.649 4.90073 19.7351C4.90073 11.457 11.7219 4.63585 20.0663 4.63585C28.4769 4.63585 35.3643 11.457 35.3643 19.7351C35.3643 28.212 28.4768 35.0993 20 35.1656Z" fill="white"/> <path d="M30 23.3775L25.8278 21.457C25.2318 21.1921 24.6358 21.3908 24.2385 21.8543L22.6491 23.9073C21.457 23.4438 18.1458 21.9868 16.2253 18.4106L17.6822 16.6887C18.0134 16.2914 18.0796 15.7616 17.8809 15.298L16.0929 11.0596C15.8942 10.5961 15.4968 10.2649 14.967 10.2649L13.7087 10.1987C13.1789 10.1987 12.5829 10.3312 12.1855 10.7286C11.5895 11.2584 10.4637 12.3842 10.1325 13.9074C9.66897 16.0928 10.3974 18.6756 12.2517 21.1922C13.3776 22.7816 16.8213 27.4836 23.4438 29.3378C24.106 29.5365 24.7683 29.6027 25.3643 29.6027C26.4901 29.6027 27.5497 29.2716 28.4769 28.7418C29.5365 28.0796 30.2649 26.9538 30.5299 25.7616L30.7285 24.8345C30.8609 24.2384 30.5299 23.6424 30 23.3775ZM29.1391 25.4304C28.9404 26.2913 28.4106 27.0861 27.6821 27.5496C26.5562 28.2781 25.2317 28.4105 23.7748 28.0132C17.6159 26.2913 14.3708 21.8542 13.3113 20.3972C11.7219 18.2118 11.0596 15.9602 11.457 14.1721C11.7218 12.9801 12.5828 12.1191 13.1126 11.6556C13.2451 11.5231 13.4438 11.4569 13.6424 11.4569L14.9669 11.5894L16.755 15.7616L15.1656 17.5496C14.9007 17.8808 14.8345 18.4105 15.0331 18.8079C17.2185 23.0463 21.1921 24.702 22.3841 25.0994C22.8477 25.2318 23.3113 25.0994 23.6424 24.702L25.2318 22.5828L29.404 24.5033L29.1391 25.4304Z" fill="white"/> </symbol>
</svg>