<svg width="34" height="34" fill="none" xmlns="http://www.w3.org/2000/svg"><path fill-rule="evenodd" clip-rule="evenodd" d="M31.762 3.298L15.598 19.463a2.1 2.1 0 01.047.122l5.15 12.691L31.762 3.298zM14.537 18.402L30.702 2.238 1.718 13.208l12.697 5.147c.041.014.082.03.122.047zm19.37-16.534l-11.83 31.258a1.375 1.375 0 01-2.57-.035l-5.26-12.961a.698.698 0 01-.016-.045.5.5 0 00-.316-.316.757.757 0 01-.044-.016L.913 14.499A1.375 1.375 0 01.88 11.92l.004-.001L32.132.093l.002-.001a1.375 1.375 0 011.774 1.775v.001z" fill="#fff"/></svg>