<svg width="35" height="35" fill="none" xmlns="http://www.w3.org/2000/svg"><path d="M17.497 2.8c.408.292.758.35 1.808.408 3.091.175 5.017.875 7.175 2.45 2.683 1.925 4.375 4.667 4.958 8.05.175.875.234 1.634.292 2.742.058.817.058 1.108.233 1.4a1.73 1.73 0 001.283.817h.175c.467 0 .934-.234 1.167-.642.408-.467.408-.875.35-1.808-.117-2.859-.7-5.484-1.867-7.7-.816-1.575-1.574-2.625-2.974-3.967-1.459-1.4-2.567-2.217-4.317-3.033C23.97.642 22.688.35 20.763.117A11.62 11.62 0 0019.188 0c-.933 0-1.341 0-1.75.408-.35.292-.525.759-.525 1.225 0 .467.233.875.584 1.167zm.7-1.517c.058-.058.116-.116.524-.116h.409c.466 0 1.167.058 1.517.116 1.808.234 2.975.467 4.666 1.284 1.634.816 2.625 1.516 4.025 2.858 1.284 1.283 1.983 2.217 2.742 3.675 1.05 2.1 1.633 4.492 1.75 7.233 0 .875 0 .934-.117.992-.058.117-.233.117-.35.117-.117 0-.291-.059-.35-.175-.058-.059-.058-.175-.116-.875-.059-1.167-.117-1.984-.292-2.917-.7-3.733-2.508-6.708-5.425-8.808-2.334-1.692-4.492-2.45-7.817-2.625-.991-.059-1.05-.117-1.166-.175a.446.446 0 01-.117-.292c0-.117.058-.233.117-.292z" fill="#fff"/><path d="M27.063 15.342c0 .816.059 1.575.875 1.983.234.117.525.175.817.175.233 0 .525-.058.7-.175.292-.117.642-.525.758-.817.175-.408.117-1.925.058-2.333-.233-1.867-.875-3.617-1.866-5.075-1.867-2.683-4.608-4.258-8.167-4.783-1.225-.175-2.1-.234-2.625.583-.408.583-.35 1.4.117 1.925.408.467.933.525 1.458.583 1.4.117 2.975.584 4.025 1.167 1.225.7 2.217 1.75 2.917 2.975a8.282 8.282 0 01.933 3.792zm-3.208-7.759c-1.225-.7-2.975-1.166-4.667-1.283-.467 0-.583-.117-.642-.175a.438.438 0 010-.525c.117-.117.175-.233 1.517-.058 3.267.466 5.717 1.866 7.35 4.258.933 1.283 1.517 2.858 1.692 4.55.116.583.058 1.575.058 1.75l-.233.233c-.058 0-.35 0-.409-.058-.116-.058-.233-.117-.233-.933 0-1.517-.408-3.15-1.108-4.375-.758-1.4-1.925-2.567-3.325-3.384z" fill="#fff"/><path d="M23.855 10.383c-.759-.758-1.692-1.225-2.917-1.458a6.43 6.43 0 00-1.05-.117c-.467 0-.7 0-1.05.175-.408.234-.7.642-.817 1.109-.116.466.059.991.35 1.341.409.409.759.467 1.517.584 1.283.116 1.983.583 2.392 1.4.233.408.35.875.408 1.575.058.583.175.991.642 1.341.292.175.642.292.992.292.408 0 .758-.117.933-.292.583-.525.642-1.225.466-2.216-.291-1.634-.816-2.8-1.866-3.734zm.7 5.017c-.117.117-.409.117-.584 0-.058-.058-.116-.058-.174-.525-.059-.758-.175-1.342-.467-1.925-.583-1.225-1.633-1.925-3.267-2.1-.642-.117-.7-.117-.758-.233-.058-.117-.058-.234-.058-.35.058-.117.116-.234.233-.292.058-.058.058-.058.175-.058h.233c.292.058.7.058.875.116.992.234 1.75.584 2.392 1.167.816.758 1.283 1.692 1.458 3.033.175.934.059 1.05-.058 1.167z" fill="#fff"/><path d="M34.355 26.542c-.408-.467-2.917-2.45-4.025-3.209a48 48 0 00-2.917-1.75 3.768 3.768 0 00-2.858-.233 4.05 4.05 0 00-.467.175c-.466.233-.817.642-1.517 1.458-.7.875-.875 1.05-.875 1.05a1.274 1.274 0 01-.291.175h-.059c-.524.292-1.4.059-2.858-.641-1.225-.584-2.333-1.342-3.558-2.45-1.05-.934-2.1-2.159-2.684-3.092-.816-1.342-1.341-2.858-1.341-3.558 0-.292.117-.7.233-.875l.059-.059.116-.116c.233-.175.525-.409.817-.642 1.341-1.05 1.75-1.458 1.983-2.275.234-.758.059-1.633-.583-2.858-.933-1.809-3.967-5.659-5.192-6.475-.175-.175-.525-.35-.758-.409C7.055.525 6.355.467 5.888.583 5.246.7 4.546 1.108 3.03 2.275 2.155 2.858.872 4.083.522 4.667c-.817 1.4-.584 2.566.116 4.608.7 1.925 1.634 3.85 2.742 5.775l.058.117c.234.35.467.758.7 1.108l.059.117c.233.35.466.758.7 1.108l.408.583c.175.234.292.409.467.642.291.408.641.817.933 1.225 3.383 4.375 7.291 7.933 11.9 10.792l.175.116c.642.409 1.341.817 2.1 1.225l.292.175c.758.409 1.458.759 2.216 1.109l.233.116c.876.409 1.634.759 2.392 1.05.933.35 1.342.467 1.983.467h.35a3.76 3.76 0 001.167-.175c.525-.175.992-.408 1.575-.817.058-.058.175-.175.292-.233.117-.117.292-.233.408-.35.642-.525 1.4-1.342 1.984-2.158.291-.409.7-1.05.933-1.575.233-.467.291-.992.291-1.459a2.54 2.54 0 00-.641-1.691zm-.7 2.741c-.117.35-.409.817-.817 1.342-.525.758-1.225 1.458-1.808 1.983-.117.117-.233.234-.35.292-.117.058-.175.117-.292.175-.466.35-.875.525-1.225.642-.291.058-.583.116-.875.116-.642 0-.875 0-1.808-.35-.7-.35-1.459-.641-2.334-1.05l-.233-.116c-.7-.35-1.458-.7-2.158-1.109l-.292-.175c-.7-.35-1.4-.758-2.041-1.166l-.175-.117c-4.55-2.8-8.342-6.242-11.609-10.5l-.875-1.225c-.175-.233-.35-.408-.466-.642l-.35-.525c-.292-.35-.525-.7-.759-1.108l-.058-.058c-.233-.35-.408-.759-.642-1.109l-.058-.116c-1.108-1.809-1.983-3.734-2.683-5.6-.817-2.1-.7-2.8-.234-3.617.234-.35 1.342-1.458 2.217-2.042 1.283-.991 1.983-1.4 2.392-1.458.233-.058.758 0 1.05.117.116.058.35.175.525.291.875.584 3.791 4.142 4.783 6.009.466.875.641 1.575.525 1.983-.117.408-.234.642-1.575 1.692-.35.233-.642.525-.875.7l-.175.175-.059.058c-.058.058-.116.058-.116.117l-.059.058c-.291.35-.466 1.05-.466 1.575.058 1.05.642 2.742 1.517 4.142.641.991 1.808 2.333 2.916 3.325 1.284 1.166 2.45 1.983 3.792 2.625 1.75.816 2.858 1.05 3.792.7h.058l.117-.059c.116-.058.291-.116.35-.175.058-.058.116-.058.175-.116.058-.059.116-.117 1.05-1.225.7-.817.933-1.05 1.166-1.167.059-.058.175-.058.292-.117.642-.233 1.283-.175 1.983.175.584.35 1.925 1.109 2.742 1.692 1.225.817 3.558 2.683 3.792 2.975.291.292.408.583.408.992 0 .291-.058.641-.175.991z" fill="#fff"/></svg>