<svg width="40" height="40" fill="none" xmlns="http://www.w3.org/2000/svg"><path d="M20.066 0C9.14 0 .265 8.874.265 19.735c0 3.444.927 6.755 2.649 9.802L0 40l10.662-2.848c3.113 1.656 6.358 2.583 9.404 2.583 10.795 0 19.934-9.14 19.934-20S31.06 0 20.066 0zm0 38.41c-2.914 0-6.026-.926-9.006-2.582l-.265-.133-8.94 2.45 2.45-8.807-.133-.265C2.516 26.225 1.59 22.98 1.59 19.735c0-10.132 8.279-18.41 18.477-18.41 10.265 0 18.61 8.278 18.61 18.41 0 10.133-8.544 18.676-18.61 18.676z" fill="#fff"/><path d="M20.066 3.311c-9.073 0-16.49 7.351-16.49 16.424 0 3.245.927 6.291 2.583 9.007l.265.33-1.788 6.292 6.49-1.655.331.198c2.715 1.656 5.695 2.517 8.61 2.517 9.138 0 16.622-7.484 16.622-16.689 0-9.073-7.484-16.424-16.623-16.424zM20 35.166c-2.649 0-5.364-.861-7.88-2.384l-.795-.53-4.835 1.192 1.325-4.636-.53-.86c-1.59-2.452-2.385-5.3-2.385-8.214 0-8.278 6.82-15.1 15.165-15.1 8.41 0 15.298 6.822 15.298 15.1 0 8.477-6.887 15.364-15.364 15.43z" fill="#fff"/><path d="M30 23.378l-4.172-1.921c-.596-.265-1.192-.066-1.59.397l-1.589 2.053c-1.192-.463-4.503-1.92-6.424-5.496l1.457-1.722c.331-.398.398-.927.199-1.391l-1.788-4.238c-.199-.464-.596-.795-1.126-.795l-1.258-.066c-.53 0-1.126.132-1.524.53-.596.53-1.721 1.655-2.053 3.178-.463 2.186.265 4.769 2.12 7.285 1.126 1.59 4.57 6.292 11.192 8.146a6.698 6.698 0 001.92.265c1.126 0 2.186-.331 3.113-.861 1.06-.662 1.788-1.788 2.053-2.98l.198-.928c.133-.596-.198-1.192-.728-1.456zm-.86 2.052c-.2.861-.73 1.656-1.458 2.12-1.126.728-2.45.86-3.907.463-6.16-1.722-9.404-6.159-10.464-7.616-1.59-2.185-2.251-4.437-1.854-6.225.265-1.192 1.126-2.053 1.656-2.516a.752.752 0 01.53-.2l1.324.133 1.788 4.173-1.59 1.788c-.264.33-.33.86-.132 1.258 2.185 4.238 6.16 5.894 7.351 6.291.464.133.927 0 1.258-.397l1.59-2.12 4.172 1.921-.265.927z" fill="#fff"/></svg>